<svg xmlns="http://www.w3.org/2000/svg" viewBox="0 0 512 501.91"><defs><style>.cls-1{fill:#f02d2d;}</style></defs><title>Gallery</title><g id="Layer_2" data-name="Layer 2"><g id="Capa_1" data-name="Capa 1"><path class="cls-1" d="M379.88,126a51.54,51.54,0,1,0,51.54,51.54A51.6,51.6,0,0,0,379.88,126Zm0,83.07a31.54,31.54,0,1,1,31.54-31.53A31.57,31.57,0,0,1,379.88,209.09Z"/><path class="cls-1" d="M380.23,446.14a9.87,9.87,0,0,0-.92-1.73,9.72,9.72,0,0,0-2.76-2.76,9.87,9.87,0,0,0-1.73-.92,9.39,9.39,0,0,0-1.87-.57,9.85,9.85,0,0,0-3.9,0,9.39,9.39,0,0,0-1.87.57,9.87,9.87,0,0,0-1.73.92,9.72,9.72,0,0,0-2.76,2.76,9.87,9.87,0,0,0-.92,1.73,9.39,9.39,0,0,0-.57,1.87,9.61,9.61,0,0,0,0,3.9,9.39,9.39,0,0,0,.57,1.87,9.87,9.87,0,0,0,.92,1.73,9.57,9.57,0,0,0,1.24,1.52,8.8,8.8,0,0,0,.72.65,9.15,9.15,0,0,0,.8.59,9.87,9.87,0,0,0,1.73.92,9.39,9.39,0,0,0,1.87.57,9.61,9.61,0,0,0,3.9,0,9.39,9.39,0,0,0,1.87-.57,9.87,9.87,0,0,0,1.73-.92,9.15,9.15,0,0,0,.8-.59,8.8,8.8,0,0,0,.72-.65,9.57,9.57,0,0,0,1.24-1.52,9.87,9.87,0,0,0,.92-1.73,10.13,10.13,0,0,0,.58-1.87,10.1,10.1,0,0,0,0-3.9A10.13,10.13,0,0,0,380.23,446.14Z"/><path class="cls-1" d="M222.85,50.41a10.63,10.63,0,0,0-.92-1.73,10,10,0,0,0-1.24-1.52,9.57,9.57,0,0,0-1.52-1.24,9.87,9.87,0,0,0-1.73-.92,10.1,10.1,0,0,0-1.87-.57,9.85,9.85,0,0,0-3.9,0,10.44,10.44,0,0,0-1.88.57,10.15,10.15,0,0,0-1.72.92,9.57,9.57,0,0,0-1.52,1.24,10.75,10.75,0,0,0-1.25,1.52,10.58,10.58,0,0,0-.91,1.73,9.39,9.39,0,0,0-.57,1.87,9.66,9.66,0,0,0,0,3.91,9.39,9.39,0,0,0,.57,1.87,10.58,10.58,0,0,0,.91,1.73,10.75,10.75,0,0,0,1.25,1.52,9.57,9.57,0,0,0,1.52,1.24,10.15,10.15,0,0,0,1.72.92,10.44,10.44,0,0,0,1.88.57,9.61,9.61,0,0,0,3.9,0,10.1,10.1,0,0,0,1.87-.57,9.87,9.87,0,0,0,1.73-.92,9.57,9.57,0,0,0,1.52-1.24,10,10,0,0,0,1.24-1.52,10.63,10.63,0,0,0,.92-1.73,9.39,9.39,0,0,0,.57-1.87,9.66,9.66,0,0,0,0-3.91A9.39,9.39,0,0,0,222.85,50.41Z"/><path class="cls-1" d="M456.13,44.27A57.6,57.6,0,0,0,400.17,0H86.42A86.52,86.52,0,0,0,0,86.42V400.17a57.57,57.57,0,0,0,55.87,57.47,57.6,57.6,0,0,0,56,44.27H454.49A57.58,57.58,0,0,0,512,444.4V101.74A57.58,57.58,0,0,0,456.13,44.27ZM492,444.41a37.56,37.56,0,0,1-37.51,37.51H111.83a37.52,37.52,0,0,1-37.51-37.51V391.35L189,196.83a18.85,18.85,0,0,1,32.79.56l49.4,90.7L343,419.94a10,10,0,0,0,17.56-9.57l-23.3-42.79a41.26,41.26,0,0,0,28.31-9.48l45-37.31a18.93,18.93,0,0,1,24.77.61l2.34,2.15,20,18.34L492,373.35Zm0-98.2-34.32-31.46-20-15.22a39,39,0,0,0-39.88,5.87l-45,37.3a21.42,21.42,0,0,1-32.49-6.24l-31.55-57.94-17.62-32.35h0l-31.78-58.35a38.84,38.84,0,0,0-67.57-1.15L74.32,352V101.74a37.55,37.55,0,0,1,37.51-37.51h61.79a10,10,0,0,0,0-20H111.83a57.58,57.58,0,0,0-57.51,57.51V437.53A37.54,37.54,0,0,1,20,400.17V86.42A66.49,66.49,0,0,1,86.42,20H400.17a37.57,37.57,0,0,1,35.08,24.23H253.62a10,10,0,1,0,0,20H437.68l20,.15A37.54,37.54,0,0,1,492,101.74Z"/></g></g></svg>