<svg xmlns="http://www.w3.org/2000/svg" viewBox="0 0 431.4 512"><defs><style>.cls-1{fill:#fff;fill-rule:evenodd;}</style></defs><title>music</title><g id="Layer_2" data-name="Layer 2"><g id="Layer_1-2" data-name="Layer 1"><path class="cls-1" d="M89.29,225.18A89.16,89.16,0,0,0,20,258.23V215.7A195,195,0,0,1,70.52,84.85a10,10,0,1,0-14.84-13.4A215,215,0,0,0,0,215.7v98.77a89.39,89.39,0,0,0,89.29,89.3,10,10,0,0,0,10-10V235.18A10,10,0,0,0,89.29,225.18ZM79.29,383a69.3,69.3,0,0,1,0-137.14Z"/><path class="cls-1" d="M368.05,63.36a214.72,214.72,0,0,0-245.62-42,10,10,0,1,0,8.7,18A192.87,192.87,0,0,1,215.7,20c107.91,0,195.7,87.79,195.7,195.7v42.52a89.15,89.15,0,0,0-69.29-33,10,10,0,0,0-10,10V393.76a10,10,0,0,0,10,10,89.38,89.38,0,0,0,89.29-89.29V215.7C431.4,158.31,408.9,104.21,368.05,63.36ZM352.11,383V245.9a69.3,69.3,0,0,1,0,137.14Z"/><path class="cls-1" d="M239.44,388.14a10,10,0,0,0-20,0V438c-11.31-7.07-26.56-11.35-43.58-11.35-35.66,0-63.59,18.74-63.59,42.66S140.2,512,175.86,512s63.58-18.74,63.58-42.66v-81.2ZM175.86,492c-25,0-43.59-12-43.59-22.66s18.64-22.66,43.59-22.66,43.55,11.95,43.58,22.64v0C219.43,480,200.79,492,175.86,492Z"/><path class="cls-1" d="M296.68,264.87l-61.24-45.93a10,10,0,0,0-16,8v81.2a10,10,0,0,0,20,0v-61.2l41.24,30.93v63.38a10,10,0,0,0,20,0V272.87A10,10,0,0,0,296.68,264.87Z"/><path class="cls-1" d="M92.62,41.16a10,10,0,1,0,10,10A10,10,0,0,0,92.62,41.16Z"/><path class="cls-1" d="M229.44,338.14a10,10,0,1,0,10,10A10,10,0,0,0,229.44,338.14Z"/></g></g></svg>