<svg xmlns="http://www.w3.org/2000/svg" viewBox="0 0 438.43 512"><defs><style>.cls-1{fill:#fff;}</style></defs><title>sports</title><g id="Layer_2" data-name="Layer 2"><g id="Layer_1-2" data-name="Layer 1"><path class="cls-1" d="M429.66,49.37A37.05,37.05,0,0,0,401.4,36.3H365.62V25.11A25.14,25.14,0,0,0,340.51,0H97.92A25.14,25.14,0,0,0,72.81,25.11V36.3H37A37.09,37.09,0,0,0,8.76,49.37,36.63,36.63,0,0,0,.47,79a191.74,191.74,0,0,0,97.4,136.87,253.28,253.28,0,0,0,16,32.09c19,32,42.63,54.07,68.63,64.76a54.12,54.12,0,0,1-41.79,57.9l-.16.05a11.84,11.84,0,0,0-9.09,11.51v54.36h-22a35.59,35.59,0,0,0-35.55,35.55v28.06A11.85,11.85,0,0,0,85.79,512h268a11.85,11.85,0,0,0,11.85-11.85V472.09a35.58,35.58,0,0,0-35.54-35.55h-22V382.18A11.85,11.85,0,0,0,299,370.66l-.15,0a54.07,54.07,0,0,1-41.75-58.39c25.55-10.86,48.76-32.77,67.48-64.27a253.28,253.28,0,0,0,16-32.09A191.74,191.74,0,0,0,438,79,36.57,36.57,0,0,0,429.66,49.37ZM23.87,75.19a12.73,12.73,0,0,1,2.95-10.46A13.35,13.35,0,0,1,37,60H72.81V81.8a372.38,372.38,0,0,0,12.63,97.59A167.8,167.8,0,0,1,23.87,75.19ZM330.08,460.24a11.87,11.87,0,0,1,11.85,11.85V488.3H97.64V472.09a11.86,11.86,0,0,1,11.85-11.85ZM284.39,394v42.51H155.17V394Zm-98.14-23.7a77.88,77.88,0,0,0,20.23-51.13,92.7,92.7,0,0,0,26.59-.16,78,78,0,0,0,20.35,51.29ZM341.92,81.8c0,58.38-13.4,113.09-37.74,154.05-23.2,39-53.37,60.53-85,60.53s-61.77-21.5-85-60.53c-24.34-41-37.74-95.67-37.74-154V25.11a1.41,1.41,0,0,1,1.41-1.41H340.51a1.41,1.41,0,0,1,1.41,1.41Zm72.64-6.61A167.78,167.78,0,0,1,353,179.38,372.25,372.25,0,0,0,365.62,81.8V60H401.4a13.35,13.35,0,0,1,10.21,4.73A12.73,12.73,0,0,1,414.56,75.19Z"/><path class="cls-1" d="M291.16,121.66a11.88,11.88,0,0,0-9.57-8.07l-35.76-5.19-16-32.4a11.84,11.84,0,0,0-21.25,0l-16,32.4-35.76,5.19a11.85,11.85,0,0,0-6.57,20.22L176.15,159,170,194.64a11.84,11.84,0,0,0,17.19,12.49l32-16.81,32,16.81a11.85,11.85,0,0,0,17.19-12.49L262.28,159l25.87-25.22A11.85,11.85,0,0,0,291.16,121.66ZM241.28,146.4a11.87,11.87,0,0,0-3.41,10.49L241,175l-16.24-8.54a11.86,11.86,0,0,0-11,0L197.45,175l3.11-18.09a11.87,11.87,0,0,0-3.41-10.49L184,133.6,202.17,131a11.84,11.84,0,0,0,8.92-6.49L219.21,108l8.13,16.46a11.86,11.86,0,0,0,8.92,6.49l18.16,2.64Z"/></g></g></svg>