<svg xmlns="http://www.w3.org/2000/svg" xmlns:xlink="http://www.w3.org/1999/xlink" viewBox="0 0 1031.74 339.77"><defs><style>.cls-1{fill:none;clip-rule:evenodd;}.cls-2,.cls-3{fill:#034ba3;}.cls-3{fill-rule:evenodd;}.cls-4{clip-path:url(#clip-path);}.cls-5{fill:url(#linear-gradient);}</style><clipPath id="clip-path"><path class="cls-1" d="M346.48,1.62a76.21,76.21,0,0,1,8.14,1.7c4.29,1.61,11.88,4.12,16.62,7.55C402.06,33.2,443,92.75,502.87,172.16L488.1,193h0c-22.24,32.28-43.75,62.92-62.68,87.69-9.65,12.64-18.64,23.75-26.71,32.76-5.32,6-17.93,21.62-30.08,24.56a56.85,56.85,0,0,1-14.09,1.21q-7.17.44-13.66.51c4.46,0,9.17-.2,14.15-.51h-.16l1.44-.09c-14-1.89-24.58-8.1-30.73-20.19l82.3-111.38-.24,0,23.68-35.77L315.44,27.71h0l0,.05C318.73,17.3,323.4,11,329.11,6.83a27.34,27.34,0,0,1,17.37-5.21"/></clipPath><linearGradient id="linear-gradient" x1="345.1" y1="41.83" x2="486.56" y2="326.28" gradientUnits="userSpaceOnUse"><stop offset="0" stop-color="#683d06"/><stop offset="1" stop-color="#c69d03"/></linearGradient></defs><title>Asset 1</title><g id="Layer_2" data-name="Layer 2"><g id="Layer_1-2" data-name="Layer 1"><path class="cls-2" d="M1015.9,275.09v-85h15.84v85Zm-33.2-29.43a98,98,0,0,1-9.66,2.49c-4.39,1-7.28,1.92-8.63,2.83a6.88,6.88,0,0,0-3.1,5.74,8.09,8.09,0,0,0,2.48,5.91,8.56,8.56,0,0,0,6.33,2.49,13.64,13.64,0,0,0,8.19-2.89,10.28,10.28,0,0,0,3.77-5.4,33.07,33.07,0,0,0,.62-7.93Zm-21.28-13.17-14.33-2.62q2.43-9,8.36-13.35t17.61-4.33q10.62,0,15.82,2.57a16,16,0,0,1,7.31,6.55c1.4,2.65,2.12,7.5,2.12,14.58l-.23,19a68.77,68.77,0,0,0,.75,12,35,35,0,0,0,2.83,8.25H985.94c-.41-1.07-.93-2.65-1.53-4.75a18.41,18.41,0,0,0-.56-1.89,28.24,28.24,0,0,1-8.67,6.13,24.1,24.1,0,0,1-9.84,2.05q-9.23,0-14.55-5.16a17.32,17.32,0,0,1-5.32-13,17.9,17.9,0,0,1,2.43-9.3,16,16,0,0,1,6.8-6.25,52.69,52.69,0,0,1,12.6-3.8c7.4-1.42,12.55-2.77,15.4-4v-1.65c0-3.16-.75-5.41-2.26-6.78s-4.37-2-8.55-2a11,11,0,0,0-6.61,1.74C963.68,227.54,962.41,229.58,961.42,232.49Zm-24.85-19v12.93H925.7v24.95a63.59,63.59,0,0,0,.31,8.84,3.56,3.56,0,0,0,1.43,2.07,4.35,4.35,0,0,0,2.67.82,19.92,19.92,0,0,0,6.4-1.57l1.33,12.66a30.72,30.72,0,0,1-12.51,2.43,19.19,19.19,0,0,1-7.7-1.48,11.17,11.17,0,0,1-5-3.84,15.64,15.64,0,0,1-2.24-6.39,83.37,83.37,0,0,1-.5-11.53v-27h-7.28V213.5h7.28V201.27l15.84-9.61V213.5Zm-61.49,61.59V213.5h15.84v61.59Zm0-69.9V190.12h15.84v15.07Zm-59.87,37.86c0,6.53,1.24,11.29,3.68,14.32a11.35,11.35,0,0,0,9.12,4.55,12.43,12.43,0,0,0,9.79-4.67c2.67-3.11,4-7.69,4-13.79q0-9.56-3.83-14.18a12,12,0,0,0-9.69-4.63,11.62,11.62,0,0,0-9.39,4.55C816.45,232.23,815.21,236.84,815.21,243.05ZM801,279l18.15,2.25c.31,2.2,1,3.7,2.08,4.53,1.53,1.17,3.9,1.76,7.13,1.76,4.15,0,7.25-.63,9.33-1.92a7.79,7.79,0,0,0,3.16-4.11,25.79,25.79,0,0,0,.73-7.48l.08-9q-7.17,10.06-18,10c-8.05,0-14.45-3.5-19.15-10.48q-5.55-8.28-5.55-20.61,0-15.5,7.26-23.64a23.23,23.23,0,0,1,18.08-8.17q11.13,0,18.36,10V213.5h14.8v55.22c0,7.26-.58,12.7-1.75,16.28a20.15,20.15,0,0,1-4.91,8.47,21.57,21.57,0,0,1-8.44,4.8A43.13,43.13,0,0,1,829,300q-15.26,0-21.64-5.38A17.07,17.07,0,0,1,800.93,281C800.93,280.45,801,279.78,801,279Zm-32.58-3.92V213.5h15.84v61.59Zm0-69.9V190.12h15.84v15.07Zm-68.58-.71v56.25h12.43a44.75,44.75,0,0,0,10.06-.81,15.06,15.06,0,0,0,6.72-3.54q2.69-2.49,4.36-8.19c1.13-3.8,1.69-9,1.69-15.57s-.56-11.59-1.69-15.11a19.59,19.59,0,0,0-4.72-8.23,15.79,15.79,0,0,0-7.71-4q-3.48-.81-13.66-.81Zm-16.77-14.36h30.49c6.88,0,12.12.53,15.72,1.62a27.34,27.34,0,0,1,12.45,7.83,37.15,37.15,0,0,1,7.9,13.77q2.68,8.13,2.7,20.08a57.2,57.2,0,0,1-2.54,18.07,37.49,37.49,0,0,1-8.85,15,29.06,29.06,0,0,1-11.72,6.78c-3.68,1.21-8.59,1.8-14.76,1.8H683.06Z"/><path class="cls-3" d="M805.94,115.35H789.8l-3.1,21.87c-.74,5-2.11,17.35-2.11,17.35s-1.37-12.39-2.09-17.35l-3.12-21.87H763.26l12,48.17h18.68Zm-42.68,0H725.63v10.32h11.58v37.85h14.46V125.67h9.85Z"/><g class="cls-4"><rect class="cls-5" x="315.44" y="1.52" width="187.43" height="338.24"/></g><path class="cls-3" d="M317,23.46c3-7.68,7-12.72,11.67-16.29h0l.23-.17h0l.23-.17a27.38,27.38,0,0,1,17.38-5.21,116.54,116.54,0,0,0-17-1.62,83.84,83.84,0,0,0-17.25,2A78.39,78.39,0,0,0,278.06,19.5l-.15.14-.08.07-.07.07-.06,0,0,0-.08.07-.07.07c-7.42,7.07-12.76,15.91-16.43,26.18h0l0,.08-.14.39,0,.08q-.5,1.37-.93,2.76-.51,1.6-1,3.27h0v.06l0,.09,0,.14a127.25,127.25,0,0,0-3.65,20.07v.24l0,.23,0,.2v0l-.05.48v0l0,.21q-.59,6-.78,12.29v.65l55.9.3-55.81-.3,55.84.3c-.07-2.61-.12-5.08-.15-7.45h0V79.16l0-10c.05-5.4.2-10,.42-14l.61-7.83c1.11-10.92,2.89-15.51,4.25-19.46l0-.08,0-.07,0,.05Zm-6.83,56.77v0Z"/><path class="cls-3" d="M322.87,339.06l.24,0,.86.06.24,0,.86.06c4.93.32,9.87.45,14.49.53h.94c4.45,0,9.18-.23,14.14-.53h.22l1.5-.09c-13.18-1.78-23.35-7.39-29.63-18.18l-1.1-2-.08.14a58,58,0,0,1-3.62-9.87,78.64,78.64,0,0,1-2.53-16,83.4,83.4,0,0,1,0-8.77l.19-2.66-57.87.32a107.29,107.29,0,0,0,4.8,18.85,67,67,0,0,0,3.52,8,51.85,51.85,0,0,0,10.2,13.83l2.84,2.5a52.8,52.8,0,0,0,11,6.7c7.67,3.51,17.15,5.88,28.88,7"/><polygon class="cls-3" points="473.46 116.49 508.37 163.52 577.66 69.1 512.34 67.66 473.46 116.49"/><polygon class="cls-3" points="508.93 180.88 473.46 231.48 512.65 288.95 588.66 289.21 508.93 180.88"/><polygon class="cls-3" points="207.01 254.91 168.79 254.91 50.41 173.54 50.41 254.91 0 279.04 0 115.59 35.96 115.59 156.61 198.62 156.61 115.59 207.01 115.59 207.01 254.91"/><polygon class="cls-3" points="364.79 115.59 388.99 147.24 268.74 147.24 268.74 171.93 411.77 171.93 390.1 200.41 268.74 200.71 268.74 225.4 377.67 226.34 356.36 257.05 217.65 257.05 217.65 115.59 364.79 115.59"/><polygon class="cls-3" points="565.49 111.62 542.49 144.53 588.7 144.53 588.7 227.1 635.71 289.21 635.71 144.53 681.92 144.53 716.52 111.62 565.49 111.62"/></g></g></svg>