<svg xmlns="http://www.w3.org/2000/svg" viewBox="0 0 58 60"><defs><style>.cls-1{fill:#f02d2d;}</style></defs><title>news</title><g id="Layer_2" data-name="Layer 2"><g id="Capa_1" data-name="Capa 1"><path class="cls-1" d="M30,16H16V30H30ZM28,28H18V18H28Z"/><path class="cls-1" d="M51,16H35a1,1,0,0,0,0,2H51a1,1,0,0,0,0-2Z"/><path class="cls-1" d="M51,22H35a1,1,0,0,0,0,2H51a1,1,0,0,0,0-2Z"/><path class="cls-1" d="M51,28H35a1,1,0,0,0,0,2H51a1,1,0,0,0,0-2Z"/><path class="cls-1" d="M51,34H18a1,1,0,0,0,0,2H51a1,1,0,0,0,0-2Z"/><path class="cls-1" d="M33,40H18a1,1,0,0,0,0,2H33a1,1,0,0,0,0-2Z"/><path class="cls-1" d="M33,46H18a1,1,0,0,0,0,2H33a1,1,0,0,0,0-2Z"/><path class="cls-1" d="M33,52H18a1,1,0,0,0,0,2H33a1,1,0,0,0,0-2Z"/><path class="cls-1" d="M38,54H52V40H38Zm2-12H50V52H40Z"/><path class="cls-1" d="M58,13s0,0,0-.05V0H10V30H0V54a6,6,0,0,0,6,6H52a6,6,0,0,0,6-6v-41S58,13,58,13ZM56,2V12H12V2ZM2,54V32h8V54a4,4,0,0,1-8,0Zm50,4H10.47l0-.06a5.75,5.75,0,0,0,.56-.74l.07-.13a5.21,5.21,0,0,0,.43-.85l0-.12a6.11,6.11,0,0,0,.28-1,.28.28,0,0,1,0-.09A6.14,6.14,0,0,0,12,54V14H56V54A4,4,0,0,1,52,58Z"/><path class="cls-1" d="M46,4H22v6H46ZM44,8H24V6H44Z"/></g></g></svg>