<svg xmlns="http://www.w3.org/2000/svg" viewBox="0 0 64 58.77"><defs><style>.cls-1{fill:#f02d2d;}</style></defs><title>results</title><g id="Layer_2" data-name="Layer 2"><g id="Capa_1" data-name="Capa 1"><g id="Zero-zero"><path class="cls-1" d="M50.19,5.55H45.27V1a1,1,0,0,0-2,0V5.55H20.87V1a1,1,0,0,0-2,0V5.55H13.81A13.83,13.83,0,0,0,0,19.36V45a13.82,13.82,0,0,0,13.81,13.8H50.2A13.81,13.81,0,0,0,64,45V19.36A13.83,13.83,0,0,0,50.19,5.55ZM2,19.36A11.83,11.83,0,0,1,13.81,7.55h5.06v3.77a1,1,0,0,0,2,0V7.55h22.4v3.77a1,1,0,0,0,2,0V7.55h4.92A11.83,11.83,0,0,1,62,19.36v3.55H2ZM2,45V24.91H31.07a1,1,0,0,0-.07.35V56.77H13.81A11.82,11.82,0,0,1,2,45Zm60,0a11.82,11.82,0,0,1-11.81,11.8H33V25.26a1,1,0,0,0-.07-.35H62Z"/><path class="cls-1" d="M17.17,31c-3.58,0-6.39,4-6.39,9s2.81,9,6.39,9,6.4-4,6.4-9S20.76,31,17.17,31Zm0,16c-2.38,0-4.39-3.21-4.39-7s2-7,4.39-7,4.4,3.21,4.4,7S19.56,47,17.17,47Z"/><path class="cls-1" d="M46.83,49c3.58,0,6.39-4,6.39-9s-2.81-9-6.39-9-6.4,4-6.4,9S43.24,49,46.83,49Zm0-16c2.38,0,4.39,3.21,4.39,7s-2,7-4.39,7-4.4-3.21-4.4-7S44.44,33,46.83,33Z"/></g></g></g></svg>