<svg xmlns="http://www.w3.org/2000/svg" viewBox="0 0 512 429.17"><defs><style>.cls-1{fill:#f02d2d;}</style></defs><title>Asset 2</title><g id="Layer_2" data-name="Layer 2"><g id="Layer_1-2" data-name="Layer 1"><path class="cls-1" d="M498.7,244.71,479.3,235a.79.79,0,0,1-.43-.71V222.45a40.6,40.6,0,0,0,16.56-32.72V173.17a32.38,32.38,0,0,0-32.35-32.35H446.51l-.78,0V125.42a23.94,23.94,0,0,0-13.3-21.52L413,94.2a.78.78,0,0,1-.43-.7V81.63a40.58,40.58,0,0,0,16.56-32.71V32.35A32.38,32.38,0,0,0,396.81,0H380.25A32.38,32.38,0,0,0,347.9,32.35V48.92a40.6,40.6,0,0,0,16.57,32.71V93.5a.77.77,0,0,1-.44.7l-19.39,9.7a23.93,23.93,0,0,0-13.31,21.52v15.42l-.78,0H314l-.78,0V125.42a23.94,23.94,0,0,0-13.3-21.52l-19.4-9.7a.78.78,0,0,1-.43-.7V81.63a40.58,40.58,0,0,0,16.56-32.71V32.35A32.38,32.38,0,0,0,264.28,0H247.72a32.38,32.38,0,0,0-32.35,32.35V48.92a40.59,40.59,0,0,0,16.56,32.71V93.5a.76.76,0,0,1-.43.7l-19.4,9.7a23.94,23.94,0,0,0-13.3,21.52v15.42l-.78,0H181.45l-.78,0V125.42a23.93,23.93,0,0,0-13.31-21.52L148,94.2a.79.79,0,0,1-.44-.7V81.63A40.59,40.59,0,0,0,164.1,48.92V32.35A32.38,32.38,0,0,0,131.75,0H115.18A32.38,32.38,0,0,0,82.83,32.35V48.92A40.6,40.6,0,0,0,99.4,81.63V93.5a.77.77,0,0,1-.44.7l-19.39,9.7a23.93,23.93,0,0,0-13.31,21.52v15.42l-.78,0H48.92a32.38,32.38,0,0,0-32.35,32.35v16.56a40.6,40.6,0,0,0,16.56,32.72v11.86a.79.79,0,0,1-.43.71l-19.4,9.69A24,24,0,0,0,0,266.24v81.63a32.29,32.29,0,0,0,5.43,17.95l8.22,12.33a17.28,17.28,0,0,1,2.92,9.62v33.9a7.5,7.5,0,0,0,15,0v-33.9a32.21,32.21,0,0,0-5.44-17.94L17.91,357.5A17.35,17.35,0,0,1,15,347.87V266.24a9,9,0,0,1,5-8.11l13.62-6.81L46,263.73a15.81,15.81,0,0,0,22.32,0l12.41-12.41,13.62,6.81a9,9,0,0,1,5,8.11v81.63a17.35,17.35,0,0,1-2.91,9.63l-8.22,12.33a32.21,32.21,0,0,0-5.44,17.94v33.9a7.5,7.5,0,0,0,15,0v-33.9a17.28,17.28,0,0,1,2.92-9.62L109,365.82a32.29,32.29,0,0,0,5.43-17.95V266.24a24,24,0,0,0-13.3-21.53L81.7,235a.79.79,0,0,1-.43-.71V222.45a40.6,40.6,0,0,0,16.56-32.72V173.17a32.39,32.39,0,0,0-16.56-28.23V125.42a9,9,0,0,1,5-8.11L99.9,110.5l12.41,12.41a15.79,15.79,0,0,0,22.32,0L147,110.5l13.62,6.81a9,9,0,0,1,5,8.11v19.52a32.38,32.38,0,0,0-16.57,28.23v16.56a40.57,40.57,0,0,0,16.57,32.71v11.87a.78.78,0,0,1-.43.7l-19.4,9.7a23.93,23.93,0,0,0-13.31,21.53v81.63A32.22,32.22,0,0,0,138,365.82l8.22,12.33a17.32,17.32,0,0,1,2.91,9.62v33.89a7.5,7.5,0,0,0,15,0V387.77a32.28,32.28,0,0,0-5.43-17.94l-8.22-12.33a17.28,17.28,0,0,1-2.92-9.62V266.24a9,9,0,0,1,5-8.11l13.61-6.81,12.41,12.41a15.79,15.79,0,0,0,22.32,0l12.41-12.41,13.62,6.81a9,9,0,0,1,5,8.11v81.64A17.27,17.27,0,0,1,229,357.5l-8.22,12.33a32.28,32.28,0,0,0-5.43,17.94v33.9a7.5,7.5,0,0,0,15,0v-33.9a17.35,17.35,0,0,1,2.91-9.62l8.22-12.33a32.21,32.21,0,0,0,5.43-17.95V266.24a23.92,23.92,0,0,0-13.3-21.53L214.23,235a.81.81,0,0,1-.43-.71V222.45a40.61,40.61,0,0,0,16.57-32.72V173.17a32.38,32.38,0,0,0-16.57-28.23V125.42a9,9,0,0,1,5-8.11l13.62-6.81,12.41,12.41a15.79,15.79,0,0,0,22.32,0l12.41-12.41,13.62,6.81a9,9,0,0,1,5,8.11v19.52a32.39,32.39,0,0,0-16.56,28.23v16.56a40.6,40.6,0,0,0,16.56,32.72v11.86a.76.76,0,0,1-.43.7l-19.4,9.7a23.94,23.94,0,0,0-13.3,21.53v81.63a32.29,32.29,0,0,0,5.43,17.95l8.22,12.33a17.28,17.28,0,0,1,2.92,9.62v33.9a7.5,7.5,0,0,0,15,0v-33.9a32.21,32.21,0,0,0-5.44-17.94L283,357.5a17.35,17.35,0,0,1-2.91-9.62V266.24a9,9,0,0,1,5-8.11l13.62-6.81,12.41,12.41a15.81,15.81,0,0,0,22.32,0l12.41-12.41,13.62,6.81a9,9,0,0,1,5,8.11v81.64a17.35,17.35,0,0,1-2.91,9.62l-8.23,12.33a32.28,32.28,0,0,0-5.43,17.94v33.9a7.5,7.5,0,0,0,15,0v-33.9a17.28,17.28,0,0,1,2.92-9.62L374,365.82a32.29,32.29,0,0,0,5.43-17.95V266.24a24,24,0,0,0-13.3-21.53L346.77,235a.8.8,0,0,1-.44-.71V222.45a40.61,40.61,0,0,0,16.57-32.72V173.17a32.38,32.38,0,0,0-16.57-28.23V125.42a9,9,0,0,1,5-8.11L365,110.5l12.41,12.41a15.79,15.79,0,0,0,22.32,0l12.41-12.41,13.61,6.81a9,9,0,0,1,5,8.11v19.52a32.37,32.37,0,0,0-16.57,28.22v16.57a40.59,40.59,0,0,0,16.57,32.71v11.87a.77.77,0,0,1-.44.7l-19.39,9.7a23.93,23.93,0,0,0-13.31,21.52v81.64A32.22,32.22,0,0,0,403,365.82l8.22,12.33a17.32,17.32,0,0,1,2.91,9.62v33.89a7.5,7.5,0,0,0,15,0V387.77a32.28,32.28,0,0,0-5.43-17.94l-8.22-12.33a17.28,17.28,0,0,1-2.92-9.62V266.24a9,9,0,0,1,5-8.11l13.62-6.81,12.41,12.41a15.81,15.81,0,0,0,22.32,0l12.41-12.41L492,258.13a9,9,0,0,1,5,8.11v81.64a17.35,17.35,0,0,1-2.91,9.62l-8.22,12.33a32.21,32.21,0,0,0-5.44,17.94v33.9a7.5,7.5,0,0,0,15,0v-33.9a17.28,17.28,0,0,1,2.92-9.62l8.22-12.33A32.29,32.29,0,0,0,512,347.87V266.24A23.94,23.94,0,0,0,498.7,244.71ZM57.75,253.12a.77.77,0,0,1-1.1,0L45.92,242.4a15.84,15.84,0,0,0,2.21-8.09v-3.94H66.27v3.94a15.78,15.78,0,0,0,2.21,8.08Zm25.08-80v16.56h0a25.63,25.63,0,1,1-51.26,0V173.17a17.37,17.37,0,0,1,17.35-17.35H65.48A17.37,17.37,0,0,1,82.83,173.17ZM124,112.31a.8.8,0,0,1-1.11,0l-10.72-10.73a15.8,15.8,0,0,0,2.21-8.08v-4h18.13v4a15.81,15.81,0,0,0,2.22,8.08Zm-.55-37.76A25.66,25.66,0,0,1,97.83,48.92V32.35h0A17.37,17.37,0,0,1,115.18,15h16.57A17.37,17.37,0,0,1,149.1,32.35V48.92A25.66,25.66,0,0,1,123.47,74.55Zm66.82,178.57a.78.78,0,0,1-1.11,0l-10.73-10.73a15.69,15.69,0,0,0,2.22-8.08v-3.94H198.8v3.94a15.69,15.69,0,0,0,2.22,8.08Zm25.08-80v16.56h0a25.64,25.64,0,1,1-51.27,0V173.17a17.37,17.37,0,0,1,17.35-17.35H198A17.37,17.37,0,0,1,215.37,173.17Zm41.18-60.86a.78.78,0,0,1-1.1,0l-10.73-10.73a15.8,15.8,0,0,0,2.21-8.08v-4h18.14v4a15.8,15.8,0,0,0,2.21,8.08ZM256,74.55a25.66,25.66,0,0,1-25.63-25.63V32.35h0A17.37,17.37,0,0,1,247.72,15h16.56a17.37,17.37,0,0,1,17.35,17.35V48.92A25.66,25.66,0,0,1,256,74.55Zm66.82,178.57a.78.78,0,0,1-1.11,0L311,242.39a15.78,15.78,0,0,0,2.21-8.08v-3.95h18.13v3.94a15.78,15.78,0,0,0,2.22,8.08Zm25.08-80v16.56a25.64,25.64,0,1,1-51.27,0V173.17A17.37,17.37,0,0,1,314,155.82h16.57A17.37,17.37,0,0,1,347.9,173.17Zm41.19-60.86a.8.8,0,0,1-1.11,0l-10.73-10.73a15.71,15.71,0,0,0,2.22-8.08v-4H397.6v4a15.71,15.71,0,0,0,2.22,8.08Zm-.56-37.76A25.66,25.66,0,0,1,362.9,48.92V32.35A17.37,17.37,0,0,1,380.25,15h16.57a17.37,17.37,0,0,1,17.35,17.35V48.92A25.66,25.66,0,0,1,388.53,74.55Zm66.82,178.57a.77.77,0,0,1-1.1,0l-10.73-10.73a15.78,15.78,0,0,0,2.21-8.08v-3.94h18.14v3.94a15.78,15.78,0,0,0,2.21,8.08Zm-.55-37.75a25.66,25.66,0,0,1-25.63-25.64V173.17h0a17.37,17.37,0,0,1,17.35-17.35h16.56a17.37,17.37,0,0,1,17.35,17.35v16.56A25.66,25.66,0,0,1,454.8,215.37Z"/></g></g></svg>