<svg xmlns="http://www.w3.org/2000/svg" xmlns:xlink="http://www.w3.org/1999/xlink" viewBox="0 0 595.94 410.37"><defs><style>.cls-1,.cls-3{fill:#333;}.cls-1,.cls-10,.cls-11,.cls-12,.cls-13,.cls-14,.cls-15,.cls-16,.cls-17,.cls-18,.cls-19,.cls-2,.cls-20,.cls-21,.cls-23,.cls-28,.cls-30,.cls-31,.cls-32,.cls-33,.cls-34,.cls-35,.cls-37,.cls-38,.cls-39,.cls-4,.cls-42,.cls-43,.cls-44,.cls-45,.cls-46,.cls-5,.cls-6,.cls-7,.cls-8,.cls-9{fill-rule:evenodd;}.cls-2{fill:#5e5f5f;}.cls-4{fill:#4d4d4d;}.cls-22,.cls-5{fill:#666;}.cls-6{fill:#b3b3b3;}.cls-7{fill:url(#GradientFill_1);}.cls-8{fill:url(#GradientFill_1-2);}.cls-9{fill:url(#GradientFill_1-3);}.cls-10{fill:url(#GradientFill_1-4);}.cls-11{fill:url(#GradientFill_1-5);}.cls-12{fill:url(#GradientFill_1-6);}.cls-13{fill:#b1b3ba;}.cls-14{fill:url(#GradientFill_1-7);}.cls-15{fill:url(#GradientFill_1-8);}.cls-16{fill:url(#GradientFill_1-9);}.cls-17{fill:url(#GradientFill_1-10);}.cls-18{fill:url(#GradientFill_1-11);}.cls-19{fill:url(#GradientFill_1-12);}.cls-20{fill:url(#GradientFill_2);}.cls-21{fill:url(#GradientFill_2-2);}.cls-23,.cls-29{fill:#1a1a1b;}.cls-24{fill:#29abe2;}.cls-25,.cls-45{fill:#f7931e;}.cls-26{fill:#ed1c24;}.cls-27{fill:#bbbdbf;}.cls-28{fill:#000001;}.cls-30{fill:#e4e5e5;}.cls-31{fill:#fff;}.cls-32{fill:#cac9ca;}.cls-33{fill:#ffca05;}.cls-34,.cls-41{fill:#ec1c24;}.cls-35,.cls-36{fill:#f6dcbe;}.cls-37{fill:#fdcf9d;}.cls-38{fill:#d0d2d3;}.cls-39{fill:#e6e7e8;}.cls-40{fill:#447491;}.cls-42{fill:#c1272d;}.cls-43{fill:#009245;}.cls-44{fill:#ff931e;}.cls-46{fill:#0071bc;}</style><linearGradient id="GradientFill_1" x1="330.2" y1="52.56" x2="321.88" y2="-6.61" gradientUnits="userSpaceOnUse"><stop offset="0" stop-color="#f6f8f9"/><stop offset="0.17" stop-color="#f6f8f9"/><stop offset="0.6" stop-color="#bec0c1"/><stop offset="1" stop-color="#838688"/></linearGradient><linearGradient id="GradientFill_1-2" x1="336.96" y1="115.43" x2="329.93" y2="58.2" xlink:href="#GradientFill_1"/><linearGradient id="GradientFill_1-3" x1="318.66" y1="47.26" x2="386.23" y2="26.6" xlink:href="#GradientFill_1"/><linearGradient id="GradientFill_1-4" x1="306.26" y1="102.65" x2="301.32" y2="46.2" xlink:href="#GradientFill_1"/><linearGradient id="GradientFill_1-5" x1="340.85" y1="88.08" x2="383.29" y2="42.56" xlink:href="#GradientFill_1"/><linearGradient id="GradientFill_1-6" x1="312.4" y1="56.07" x2="280.91" y2="21.1" xlink:href="#GradientFill_1"/><linearGradient id="GradientFill_1-7" x1="211.5" y1="62.05" x2="177.16" y2="27.72" xlink:href="#GradientFill_1"/><linearGradient id="GradientFill_1-8" x1="253.53" y1="107.78" x2="220.71" y2="73.79" xlink:href="#GradientFill_1"/><linearGradient id="GradientFill_1-9" x1="205.96" y1="64.56" x2="243.98" y2="14.11" xlink:href="#GradientFill_1"/><linearGradient id="GradientFill_1-10" x1="222.34" y1="116.58" x2="191.22" y2="82.02" xlink:href="#GradientFill_1"/><linearGradient id="GradientFill_1-11" x1="244.06" y1="95.11" x2="252.5" y2="26.43" xlink:href="#GradientFill_1"/><linearGradient id="GradientFill_1-12" x1="200.52" y1="79.08" x2="151.8" y2="69.61" xlink:href="#GradientFill_1"/><linearGradient id="GradientFill_2" x1="309.64" y1="165.07" x2="295.51" y2="166.8" gradientUnits="userSpaceOnUse"><stop offset="0" stop-color="#95959a"/><stop offset="1" stop-color="#babbc0"/></linearGradient><linearGradient id="GradientFill_2-2" x1="299.65" y1="166.23" x2="285.54" y2="167.96" xlink:href="#GradientFill_2"/></defs><title>Asset 2</title><g id="Layer_2" data-name="Layer 2"><g id="Isolation_Mode" data-name="Isolation Mode"><polygon class="cls-1" points="283.1 235.52 274.18 236.56 271.51 213.57 303.8 209.82 306.47 232.81 297.55 233.85 352.51 327.63 351.78 328.06 339.94 329.43 299.16 259.84 307.67 333.17 296 334.53 287.48 261.19 263.71 338.27 251.88 339.64 251.07 339.4 283.1 235.52"/><polygon class="cls-2" points="162.53 140.78 168.07 143.17 197.38 139.91 199.98 139.61 200.26 142.06 201.2 150.14 201.7 154.44 199.1 154.75 169.96 159.39 165.39 165.37 162.53 140.78"/><rect class="cls-3" x="181.61" y="136.45" width="44.64" height="21.6" transform="translate(-15.61 24.48) rotate(-6.62)"/><rect class="cls-3" x="222.46" y="78.8" width="102.22" height="58.13" transform="translate(-10.61 32.25) rotate(-6.62)"/><polygon class="cls-4" points="278.89 189.3 280.81 189.08 390.05 176.41 391.96 176.19 391.74 174.27 387.39 136.74 387.16 134.83 385.25 135.05 276.01 147.72 274.09 147.95 274.31 149.86 278.67 187.39 278.89 189.3"/><rect class="cls-3" x="258.89" y="137.68" width="109.97" height="53.21" transform="translate(-16.84 37.27) rotate(-6.62)"/><path class="cls-4" d="M229.37,232,349,218.1A13.64,13.64,0,0,0,361,203l-9.23-79.63a13.65,13.65,0,0,0-15.13-12L217,125.24a13.65,13.65,0,0,0-12,15.13L214.25,220A13.64,13.64,0,0,0,229.37,232Z"/><path class="cls-1" d="M291.32,60.19A39.45,39.45,0,1,0,326,16.45,39.45,39.45,0,0,0,291.32,60.19Z"/><path class="cls-5" d="M324.1.37a55.31,55.31,0,1,1-48.57,61.32A55.31,55.31,0,0,1,324.1.37ZM324.65,11h0a12.15,12.15,0,1,0,13.46,10.67A12.16,12.16,0,0,0,324.65,11Zm6.41,49.34h0a4,4,0,1,0,4.48,3.55,4,4,0,0,0-4.48-3.55ZM333,55.19h0a2.36,2.36,0,1,0-2.07,2.62A2.37,2.37,0,0,0,333,55.19Zm-3.11-4.9h0a4,4,0,1,0-4.49-3.56,4,4,0,0,0,4.49,3.56Zm24.79,28.92h0a12.14,12.14,0,1,0-6.32-16,12.14,12.14,0,0,0,6.32,16Zm-8.65-36h0a12.14,12.14,0,1,0,2.49-17,12.15,12.15,0,0,0-2.49,17Zm-2.5,10.64h0A4,4,0,1,0,340,58.28a4,4,0,0,0,3.55-4.48Zm-8.62,45.65h0a12.14,12.14,0,1,0-13.46-10.66,12.16,12.16,0,0,0,13.46,10.66Zm-13-39.07h0a4,4,0,1,0-4.48-3.55,4.05,4.05,0,0,0,4.48,3.55Zm-17-29.15h0a12.14,12.14,0,1,0,6.33,16,12.15,12.15,0,0,0-6.33-16ZM311,84.28h0a12.14,12.14,0,1,0-17-2.51A12.16,12.16,0,0,0,311,84.28Z"/><path class="cls-6" d="M324.45,3.39a52.27,52.27,0,1,1-45.9,58,52.26,52.26,0,0,1,45.9-57.95Zm.2,7.61h0a12.15,12.15,0,1,0,13.46,10.67A12.16,12.16,0,0,0,324.65,11Zm6.41,49.34h0a4,4,0,1,0,4.48,3.55,4,4,0,0,0-4.48-3.55ZM333,55.19h0a2.36,2.36,0,1,0-2.07,2.62A2.37,2.37,0,0,0,333,55.19Zm-3.11-4.9h0a4,4,0,1,0-4.49-3.56,4,4,0,0,0,4.49,3.56Zm24.79,28.92h0a12.14,12.14,0,1,0-6.32-16,12.14,12.14,0,0,0,6.32,16Zm-8.65-36h0a12.14,12.14,0,1,0,2.49-17,12.15,12.15,0,0,0-2.49,17Zm-2.5,10.64h0A4,4,0,1,0,340,58.28a4,4,0,0,0,3.55-4.48Zm-8.62,45.65h0a12.14,12.14,0,1,0-13.46-10.66,12.16,12.16,0,0,0,13.46,10.66Zm-13-39.07h0a4,4,0,1,0-4.48-3.55,4.05,4.05,0,0,0,4.48,3.55Zm-17-29.15h0a12.14,12.14,0,1,0,6.33,16,12.15,12.15,0,0,0-6.33-16ZM311,84.28h0a12.14,12.14,0,1,0-17-2.51A12.16,12.16,0,0,0,311,84.28Z"/><path class="cls-7" d="M324.42,9A14.16,14.16,0,1,1,312,24.7,14.16,14.16,0,0,1,324.42,9Zm3,26.13h0A12.15,12.15,0,1,0,314,24.47,12.15,12.15,0,0,0,327.45,35.13Z"/><path class="cls-8" d="M331.88,73.32A14.16,14.16,0,1,1,319.45,89a14.16,14.16,0,0,1,12.43-15.7Zm3,26.13h0a12.14,12.14,0,1,0-13.46-10.66A12.16,12.16,0,0,0,334.91,99.45Z"/><path class="cls-9" d="M347.32,24.55a14.17,14.17,0,1,1-2.92,19.81,14.16,14.16,0,0,1,2.92-19.81ZM346,43.16h0a12.14,12.14,0,1,0,2.49-17A12.15,12.15,0,0,0,346,43.16Z"/><path class="cls-10" d="M295.35,63.17A14.17,14.17,0,1,1,292.43,83a14.16,14.16,0,0,1,2.92-19.81Zm-1.29,18.6h0a12.14,12.14,0,1,0,2.49-17A12.14,12.14,0,0,0,294.06,81.77Z"/><path class="cls-11" d="M346.5,62.45a14.16,14.16,0,1,1,7.38,18.63,14.16,14.16,0,0,1-7.38-18.63Zm8.18,16.76h0a12.14,12.14,0,1,0-6.32-16A12.14,12.14,0,0,0,354.68,79.21Z"/><path class="cls-12" d="M287.07,36.76a14.16,14.16,0,1,1,7.37,18.62,14.16,14.16,0,0,1-7.37-18.62Zm8.18,16.76h0a12.14,12.14,0,1,0-6.33-16A12.15,12.15,0,0,0,295.25,53.52Z"/><path class="cls-13" d="M328.73,40.24a15.18,15.18,0,1,1-13.34,16.83,15.18,15.18,0,0,1,13.34-16.83Zm3.38,29.14h0A14.16,14.16,0,1,0,316.4,57,14.16,14.16,0,0,0,332.11,69.38Z"/><path class="cls-1" d="M188.63,95.61a39.46,39.46,0,1,0,1.93-55.77A39.46,39.46,0,0,0,188.63,95.61Z"/><path class="cls-5" d="M179.52,28a55.31,55.31,0,1,1-2.71,78.17A55.3,55.3,0,0,1,179.52,28Zm6.75,8.23h0a12.14,12.14,0,1,0,17.17.59,12.17,12.17,0,0,0-17.17-.59Zm34.44,35.91h0a4,4,0,1,0,5.71.19,4,4,0,0,0-5.71-.19Zm-1.49-5.3h0a2.36,2.36,0,1,0-.12,3.33,2.36,2.36,0,0,0,.12-3.33Zm-5.41-2.1h0a4.05,4.05,0,1,0-5.73-.2,4,4,0,0,0,5.73.2Zm37.11,8.57h0a12.14,12.14,0,1,0-14.56-9.09,12.15,12.15,0,0,0,14.56,9.09ZM222.56,49.44h0a12.14,12.14,0,1,0-8.07-15.16,12.15,12.15,0,0,0,8.07,15.16Zm4.31,10h0a4,4,0,1,0-.2,5.72,4,4,0,0,0,.2-5.72ZM247,101.34h0a12.14,12.14,0,1,0-17.16-.6,12.16,12.16,0,0,0,17.16.6ZM213.36,77.62h0a4.05,4.05,0,1,0-5.72-.2,4.06,4.06,0,0,0,5.72.2Zm-31-13.37h0a12.14,12.14,0,1,0,14.57,9.09,12.15,12.15,0,0,0-14.57-9.09Zm36.43,39h0a12.14,12.14,0,1,0-15.16,8.06A12.14,12.14,0,0,0,218.8,103.29Z"/><path class="cls-6" d="M181.59,30.23A52.28,52.28,0,1,1,179,104.11a52.27,52.27,0,0,1,2.56-73.88Zm4.68,6h0a12.14,12.14,0,1,0,17.17.59,12.17,12.17,0,0,0-17.17-.59Zm34.44,35.91h0a4,4,0,1,0,5.71.19,4,4,0,0,0-5.71-.19Zm-1.49-5.3h0a2.36,2.36,0,1,0-.12,3.33,2.36,2.36,0,0,0,.12-3.33Zm-5.41-2.1h0a4.05,4.05,0,1,0-5.73-.2,4,4,0,0,0,5.73.2Zm37.11,8.57h0a12.14,12.14,0,1,0-14.56-9.09,12.15,12.15,0,0,0,14.56,9.09ZM222.56,49.44h0a12.14,12.14,0,1,0-8.07-15.16,12.15,12.15,0,0,0,8.07,15.16Zm4.31,10h0a4,4,0,1,0-.2,5.72,4,4,0,0,0,.2-5.72ZM247,101.34h0a12.14,12.14,0,1,0-17.16-.6,12.16,12.16,0,0,0,17.16.6ZM213.36,77.62h0a4.05,4.05,0,1,0-5.72-.2,4.06,4.06,0,0,0,5.72.2Zm-31-13.37h0a12.14,12.14,0,1,0,14.57,9.09,12.15,12.15,0,0,0-14.57-9.09Zm36.43,39h0a12.14,12.14,0,1,0-15.16,8.06A12.14,12.14,0,0,0,218.8,103.29Z"/><path class="cls-14" d="M184.9,34.76a14.16,14.16,0,1,1-.69,20,14.17,14.17,0,0,1,.69-20ZM202.84,54h0a12.14,12.14,0,1,0-17.16-.6A12.17,12.17,0,0,0,202.84,54Z"/><path class="cls-15" d="M229.07,82.1a14.16,14.16,0,1,1-.69,20,14.16,14.16,0,0,1,.69-20Zm18,19.24h0a12.14,12.14,0,1,0-17.16-.6A12.16,12.16,0,0,0,247,101.34Z"/><path class="cls-16" d="M212.56,33.69A14.16,14.16,0,1,1,222,51.37a14.16,14.16,0,0,1-9.41-17.68Zm10,15.75h0a12.14,12.14,0,1,0-8.07-15.16A12.15,12.15,0,0,0,222.56,49.44Z"/><path class="cls-17" d="M193.65,95.61a14.16,14.16,0,1,1,9.4,17.68,14.16,14.16,0,0,1-9.4-17.68Zm10,15.74h0a12.14,12.14,0,1,0-8.06-15.14A12.13,12.13,0,0,0,203.64,111.35Z"/><path class="cls-18" d="M234.39,64.69a14.17,14.17,0,1,1,17,10.61,14.16,14.16,0,0,1-17-10.61Zm16.53,8.63h0a12.14,12.14,0,1,0-14.56-9.09A12.15,12.15,0,0,0,250.92,73.32Z"/><path class="cls-19" d="M171.31,79.28a14.17,14.17,0,1,1,17,10.6,14.16,14.16,0,0,1-17-10.6Zm16.53,8.63h0a12.14,12.14,0,1,0-14.56-9.1A12.17,12.17,0,0,0,187.84,87.91Z"/><path class="cls-13" d="M206.9,57.35a15.18,15.18,0,1,1-.74,21.46,15.18,15.18,0,0,1,.74-21.46Zm20,21.45h0a14.16,14.16,0,1,0-20-.69A14.16,14.16,0,0,0,226.92,78.8Z"/><path class="cls-20" d="M300.69,170.14a1.82,1.82,0,0,0,2,1.59l1.07-.12a1.82,1.82,0,0,0,1.6-2l-.91-7.87a1.82,1.82,0,0,0-2-1.59l-1.07.12a1.83,1.83,0,0,0-1.6,2Z"/><path class="cls-21" d="M290.71,171.3a1.82,1.82,0,0,0,2,1.59l1.07-.12a1.82,1.82,0,0,0,1.6-2l-.91-7.87a1.82,1.82,0,0,0-2-1.59l-1.07.12a1.82,1.82,0,0,0-1.59,2Z"/><rect class="cls-22" x="256.31" y="128.15" width="82.04" height="75.04" transform="translate(-17.11 35.37) rotate(-6.62)"/><path class="cls-1" d="M342.4,198.21l-81.49,9.46-8.65-74.54,81.49-9.46,8.65,74.54Zm-10.68-72h0l-76.89,8.92,8.11,69.92,76.89-8.92Z"/><path class="cls-1" d="M320.69,174.08a11,11,0,1,0-12.25-9.7A11.06,11.06,0,0,0,320.69,174.08Z"/><path class="cls-1" d="M320.52,172.67a9.63,9.63,0,1,0-10.66-8.45A9.66,9.66,0,0,0,320.52,172.67Z"/><path class="cls-1" d="M274.09,179.48a11,11,0,1,0-12.25-9.69A11.05,11.05,0,0,0,274.09,179.48Z"/><path class="cls-1" d="M273.93,178.07a9.62,9.62,0,1,0-10.67-8.45A9.66,9.66,0,0,0,273.93,178.07Z"/><polygon class="cls-1" points="391.87 125.07 392.24 128.22 401.33 119.07 408.84 181.36 397.5 173.54 398.76 184.4 383.57 186.17 376.68 126.83 391.87 125.07"/><path class="cls-4" d="M403.58,109.13l28.08-3.27,9.46,81.59L413,190.71c-5.17.6-7.18.55-7.34-.82l-9.1-78.42C396.45,110.1,398.4,109.73,403.58,109.13Z"/><path class="cls-1" d="M163.42,166.43a5.16,5.16,0,0,0,4.53-5.72l-2-17.07a5.16,5.16,0,0,0-10.26,1.19l2,17.07A5.17,5.17,0,0,0,163.42,166.43Z"/><path class="cls-23" d="M595.94,178.94,341.61,410.37l-65.48-72L530.46,107l65.48,72ZM286.88,334.58h0a1.42,1.42,0,0,0-2,0l-2.23,2a1.41,1.41,0,0,0-.23,2l3.21,3.53a1.42,1.42,0,0,0,2,0l2.23-2a1.42,1.42,0,0,0,.23-2l-3.21-3.53Zm10.6-9.65h0a1.43,1.43,0,0,0-2,.05l-2.23,2a1.42,1.42,0,0,0-.23,2l3.21,3.53a1.43,1.43,0,0,0,2,0l2.23-2a1.43,1.43,0,0,0,.23-2l-3.21-3.53Zm10.6-9.64h0a1.42,1.42,0,0,0-2,0l-2.23,2a1.42,1.42,0,0,0-.23,2l3.21,3.53a1.43,1.43,0,0,0,2,0l2.23-2a1.41,1.41,0,0,0,.23-2l-3.21-3.53Zm10.6-9.65h0a1.43,1.43,0,0,0-2,.05l-2.23,2a1.41,1.41,0,0,0-.23,2l3.21,3.53a1.42,1.42,0,0,0,2,0l2.23-2a1.42,1.42,0,0,0,.23-2l-3.21-3.53Zm10.6-9.64h0a1.42,1.42,0,0,0-2,0l-2.23,2a1.42,1.42,0,0,0-.23,2l3.21,3.53a1.43,1.43,0,0,0,2,0l2.23-2a1.41,1.41,0,0,0,.23-2L329.28,296Zm10.6-9.65h0a1.42,1.42,0,0,0-2,0l-2.23,2a1.41,1.41,0,0,0-.23,2l3.21,3.53a1.42,1.42,0,0,0,2,0l2.23-2a1.42,1.42,0,0,0,.23-2l-3.21-3.53Zm10.6-9.64h0a1.42,1.42,0,0,0-2,0l-2.23,2a1.42,1.42,0,0,0-.23,2l3.21,3.53a1.43,1.43,0,0,0,2-.05l2.23-2a1.43,1.43,0,0,0,.23-2l-3.21-3.52Zm10.6-9.65h0a1.42,1.42,0,0,0-2,0l-2.23,2a1.41,1.41,0,0,0-.23,2l3.21,3.53a1.42,1.42,0,0,0,2,0l2.23-2a1.42,1.42,0,0,0,.23-2l-3.21-3.53Zm10.65-9.69h0a1.42,1.42,0,0,0-2,0l-2.23,2a1.42,1.42,0,0,0-.23,2l3.21,3.53a1.42,1.42,0,0,0,2,0l2.23-2a1.41,1.41,0,0,0,.23-2l-3.21-3.53Zm10.6-9.65h0a1.43,1.43,0,0,0-2,.05l-2.23,2a1.41,1.41,0,0,0-.23,2l3.21,3.53a1.42,1.42,0,0,0,2,0l2.23-2a1.42,1.42,0,0,0,.23-2l-3.21-3.53Zm10.6-9.64h0a1.42,1.42,0,0,0-2,0l-2.23,2a1.42,1.42,0,0,0-.23,2l3.21,3.53a1.43,1.43,0,0,0,2,0l2.23-2a1.41,1.41,0,0,0,.23-2l-3.21-3.53Zm10.6-9.65h0a1.43,1.43,0,0,0-2,0l-2.23,2a1.41,1.41,0,0,0-.23,2l3.21,3.53a1.42,1.42,0,0,0,2,0l2.23-2a1.42,1.42,0,0,0,.23-2l-3.21-3.53Zm10.6-9.65h0a1.43,1.43,0,0,0-2,.05l-2.23,2a1.42,1.42,0,0,0-.23,2l3.21,3.53a1.43,1.43,0,0,0,2,0l2.23-2a1.42,1.42,0,0,0,.23-2l-3.21-3.53Zm10.6-9.64h0a1.42,1.42,0,0,0-2,0l-2.23,2a1.42,1.42,0,0,0-.23,2l3.21,3.53a1.41,1.41,0,0,0,2,0l2.23-2a1.41,1.41,0,0,0,.23-2l-3.21-3.53Zm10.6-9.65h0a1.43,1.43,0,0,0-2,0l-2.23,2a1.42,1.42,0,0,0-.23,2l3.21,3.52a1.42,1.42,0,0,0,2,0l2.23-2a1.42,1.42,0,0,0,.23-2l-3.21-3.53Zm10.6-9.64h0a1.42,1.42,0,0,0-2,0l-2.23,2a1.42,1.42,0,0,0-.23,2l3.21,3.53a1.43,1.43,0,0,0,2,0l2.23-2a1.41,1.41,0,0,0,.23-2l-3.21-3.53Zm10.65-9.69h0a1.42,1.42,0,0,0-2,0l-2.23,2a1.43,1.43,0,0,0-.23,2l3.21,3.53a1.43,1.43,0,0,0,2-.05l2.23-2a1.42,1.42,0,0,0,.23-2l-3.21-3.52Zm10.6-9.65h0a1.43,1.43,0,0,0-2,0l-2.23,2a1.41,1.41,0,0,0-.23,2l3.21,3.53a1.42,1.42,0,0,0,2,0l2.23-2a1.42,1.42,0,0,0,.23-2l-3.21-3.53Zm10.6-9.64h0a1.42,1.42,0,0,0-2,0l-2.23,2a1.42,1.42,0,0,0-.23,2l3.21,3.53a1.43,1.43,0,0,0,2-.05l2.23-2a1.42,1.42,0,0,0,.23-2l-3.21-3.52Zm10.6-9.65h0a1.42,1.42,0,0,0-2,0l-2.23,2a1.42,1.42,0,0,0-.23,2l3.21,3.53a1.42,1.42,0,0,0,2-.05l2.23-2a1.41,1.41,0,0,0,.23-2l-3.21-3.53Zm10.6-9.65h0a1.43,1.43,0,0,0-2,.05l-2.23,2a1.42,1.42,0,0,0-.23,2l3.21,3.52a1.42,1.42,0,0,0,2,0l2.23-2a1.42,1.42,0,0,0,.23-2L499,141.57Zm10.6-9.64h0a1.42,1.42,0,0,0-2,0l-2.23,2a1.42,1.42,0,0,0-.23,2l3.21,3.53a1.43,1.43,0,0,0,2-.05l2.23-2a1.41,1.41,0,0,0,.23-2l-3.21-3.53Zm10.6-9.65h0a1.43,1.43,0,0,0-2,0l-2.23,2a1.41,1.41,0,0,0-.23,2l3.21,3.53a1.42,1.42,0,0,0,2,0l2.23-2a1.42,1.42,0,0,0,.23-2l-3.21-3.53Zm10.6-9.64h0a1.42,1.42,0,0,0-2,0l-2.23,2a1.42,1.42,0,0,0-.23,2l3.21,3.53a1.43,1.43,0,0,0,2,0l2.23-2a1.42,1.42,0,0,0,.23-2l-3.21-3.52ZM343.2,396.47h0a1.42,1.42,0,0,0-2,0l-2.24,2a1.44,1.44,0,0,0-.23,2l3.21,3.53a1.43,1.43,0,0,0,2-.05l2.23-2a1.42,1.42,0,0,0,.24-2l-3.21-3.53Zm10.6-9.65h0a1.43,1.43,0,0,0-2,.05l-2.24,2a1.43,1.43,0,0,0-.23,2l3.21,3.53a1.42,1.42,0,0,0,2,0l2.24-2a1.44,1.44,0,0,0,.23-2l-3.21-3.53Zm10.59-9.64h0a1.41,1.41,0,0,0-2,0l-2.24,2a1.44,1.44,0,0,0-.23,2l3.21,3.53a1.43,1.43,0,0,0,2,0l2.24-2a1.43,1.43,0,0,0,.23-2l-3.22-3.53ZM375,367.53h0a1.43,1.43,0,0,0-2,0l-2.24,2a1.43,1.43,0,0,0-.23,2l3.21,3.53a1.42,1.42,0,0,0,2,0l2.23-2a1.43,1.43,0,0,0,.24-2L375,367.53Zm10.6-9.65h0a1.43,1.43,0,0,0-2,.05l-2.24,2a1.43,1.43,0,0,0-.23,2l3.21,3.53a1.43,1.43,0,0,0,2-.05l2.23-2a1.42,1.42,0,0,0,.24-2l-3.21-3.53Zm10.6-9.64h0a1.42,1.42,0,0,0-2,0l-2.24,2a1.44,1.44,0,0,0-.23,2l3.21,3.53a1.42,1.42,0,0,0,2-.05l2.24-2a1.43,1.43,0,0,0,.23-2l-3.21-3.53Zm10.6-9.65h0a1.43,1.43,0,0,0-2,.05l-2.24,2a1.43,1.43,0,0,0-.23,2l3.21,3.53a1.42,1.42,0,0,0,2,0l2.23-2a1.43,1.43,0,0,0,.24-2l-3.21-3.53ZM417.4,329h0a1.42,1.42,0,0,0-2,0l-2.24,2a1.43,1.43,0,0,0-.23,2l3.21,3.53a1.43,1.43,0,0,0,2-.05l2.23-2a1.42,1.42,0,0,0,.24-2L417.4,329Zm10.65-9.69h0a1.42,1.42,0,0,0-2,0l-2.23,2a1.43,1.43,0,0,0-.24,2l3.21,3.53a1.43,1.43,0,0,0,2-.05l2.24-2a1.44,1.44,0,0,0,.23-2l-3.21-3.52Zm10.6-9.65h0a1.42,1.42,0,0,0-2,0l-2.24,2a1.43,1.43,0,0,0-.23,2l3.21,3.53a1.42,1.42,0,0,0,2,0l2.24-2a1.42,1.42,0,0,0,.23-2l-3.21-3.53Zm10.6-9.65h0a1.43,1.43,0,0,0-2,.05L445,302a1.44,1.44,0,0,0-.23,2l3.21,3.52a1.42,1.42,0,0,0,2,0l2.24-2a1.44,1.44,0,0,0,.23-2L449.25,300Zm10.6-9.64h0a1.42,1.42,0,0,0-2,0l-2.24,2a1.44,1.44,0,0,0-.23,2l3.22,3.53a1.42,1.42,0,0,0,2,0l2.24-2a1.42,1.42,0,0,0,.23-2l-3.21-3.53Zm10.6-9.65h0a1.43,1.43,0,0,0-2,.05l-2.24,2a1.43,1.43,0,0,0-.23,2l3.21,3.53a1.42,1.42,0,0,0,2,0l2.24-2a1.43,1.43,0,0,0,.23-2l-3.21-3.53Zm10.6-9.64h0a1.42,1.42,0,0,0-2,0l-2.23,2a1.43,1.43,0,0,0-.24,2l3.21,3.53a1.43,1.43,0,0,0,2-.05l2.24-2a1.43,1.43,0,0,0,.23-2L481.05,271Zm10.6-9.65h0a1.43,1.43,0,0,0-2,0l-2.24,2a1.43,1.43,0,0,0-.23,2l3.21,3.53a1.42,1.42,0,0,0,2,0l2.24-2a1.44,1.44,0,0,0,.23-2l-3.21-3.53Zm10.6-9.65h0a1.43,1.43,0,0,0-2,.05l-2.24,2a1.44,1.44,0,0,0-.23,2l3.21,3.53a1.43,1.43,0,0,0,2-.05l2.24-2a1.43,1.43,0,0,0,.23-2l-3.21-3.53ZM512.9,242h0a1.43,1.43,0,0,0-2,.05l-2.23,2a1.42,1.42,0,0,0-.24,2l3.21,3.53a1.42,1.42,0,0,0,2,0l2.24-2a1.43,1.43,0,0,0,.23-2L512.9,242Zm10.6-9.64h0a1.42,1.42,0,0,0-2,0l-2.24,2a1.44,1.44,0,0,0-.23,2l3.21,3.53a1.42,1.42,0,0,0,2-.05l2.24-2a1.42,1.42,0,0,0,.23-2l-3.21-3.53Zm10.6-9.65h0a1.43,1.43,0,0,0-2,0l-2.23,2a1.42,1.42,0,0,0-.24,2l3.21,3.53a1.42,1.42,0,0,0,2,0l2.24-2a1.44,1.44,0,0,0,.23-2l-3.21-3.53Zm10.6-9.64h0a1.42,1.42,0,0,0-2,0l-2.23,2a1.43,1.43,0,0,0-.24,2l3.22,3.53a1.42,1.42,0,0,0,2,0l2.24-2a1.43,1.43,0,0,0,.23-2l-3.21-3.52Zm10.6-9.65h0a1.42,1.42,0,0,0-2,0l-2.23,2a1.42,1.42,0,0,0-.24,2l3.21,3.53a1.42,1.42,0,0,0,2,0l2.24-2a1.42,1.42,0,0,0,.23-2l-3.21-3.53Zm10.6-9.65h0a1.43,1.43,0,0,0-2,.05l-2.23,2a1.43,1.43,0,0,0-.24,2l3.21,3.52a1.42,1.42,0,0,0,2,0l2.24-2a1.43,1.43,0,0,0,.23-2l-3.21-3.53Zm10.6-9.64h0a1.42,1.42,0,0,0-2,0l-2.23,2a1.43,1.43,0,0,0-.24,2l3.22,3.53a1.41,1.41,0,0,0,2,0l2.24-2a1.42,1.42,0,0,0,.23-2l-3.21-3.53Zm10.6-9.65h0a1.43,1.43,0,0,0-2,0l-2.24,2a1.44,1.44,0,0,0-.23,2l3.21,3.52a1.42,1.42,0,0,0,2,0l2.24-2a1.43,1.43,0,0,0,.23-2Z"/><rect class="cls-24" x="490.51" y="141.47" width="76.38" height="65.76" transform="translate(20.32 401.23) rotate(-42.3)"/><rect class="cls-25" x="428.53" y="197.47" width="76.38" height="65.76" transform="translate(-33.5 374.09) rotate(-42.3)"/><rect class="cls-26" x="366.55" y="253.46" width="76.38" height="65.76" transform="translate(-87.33 346.96) rotate(-42.3)"/><rect class="cls-27" x="304.57" y="309.46" width="76.38" height="65.76" transform="translate(-141.15 319.82) rotate(-42.3)"/><path class="cls-28" d="M.13,261.35a3.6,3.6,0,0,0,2.52,4.43l125.62,34.44a3.61,3.61,0,0,0,4.43-2.53L156,212.56a3.6,3.6,0,0,0-2.52-4.43L27.9,173.69a3.6,3.6,0,0,0-4.43,2.53Z"/><rect class="cls-29" x="81.68" y="121.33" width="17.35" height="141.75" transform="translate(-118.9 228.53) rotate(-74.67)"/><rect class="cls-29" x="97.38" y="86.1" width="17.35" height="141.75" transform="translate(-83.34 161.37) rotate(-57.29)"/><path class="cls-30" d="M165.68,185l-24,5.22-14.17-9.1,24-5.22,14.17,9.1Zm-26.3-16.9h0l-24,5.22-14.16-9.09,24-5.22,14.17,9.09ZM72.62,125.2h0l14.17,9.1-24,5.22-14.17-9.1,24-5.22Zm40.46,26h0l-24,5.22L75,147.31l24-5.22Z"/><path class="cls-30" d="M151,217.83l-12.14-21.31-16.24-4.45,12.14,21.31L151,217.83Zm-30.14-8.26h0l-12.15-21.32L92.51,183.8l12.14,21.32,16.24,4.45Zm-76.52-21h0L60.6,193,48.46,171.73l-16.23-4.45,12.14,21.31Zm46.37,12.72h0L78.6,180l-16.23-4.45,12.14,21.31Z"/><polygon class="cls-28" points="156.41 219.31 164.64 189.31 161.19 188.36 122.96 210.14 156.41 219.31"/><path class="cls-31" d="M138.83,238.13,24.71,206.84l.48-1.72L139.31,236.4l-.48,1.73Zm-4.22,15.4.47-1.72L21,220.52l-.47,1.73,114.12,31.28Zm-4.22,15.41.47-1.73L16.74,235.93l-.47,1.72,38.16,10.47L51.31,259.5,53,260l3.12-11.38,41.2,11.29-3.12,11.38,1.72.48,3.12-11.39,31.32,8.59Z"/><path class="cls-32" d="M150.73,214a1.79,1.79,0,1,0,2.21-1.25A1.78,1.78,0,0,0,150.73,214Z"/><path class="cls-2" d="M151.79,214l.48.13.13-.48a.27.27,0,1,1,.52.14l-.13.48.47.13a.26.26,0,1,1-.14.51l-.47-.13-.13.48a.27.27,0,0,1-.52-.14l.13-.48-.48-.13a.27.27,0,0,1-.18-.33A.26.26,0,0,1,151.79,214Z"/><path class="cls-32" d="M132.54,208a1.79,1.79,0,1,0,2.54.06A1.8,1.8,0,0,0,132.54,208Z"/><path class="cls-2" d="M133.45,208.59l.34.36.36-.35a.28.28,0,0,1,.38,0,.27.27,0,0,1,0,.38l-.36.34.34.36a.27.27,0,0,1,0,.38.26.26,0,0,1-.37,0l-.35-.36-.36.34a.25.25,0,0,1-.37,0,.27.27,0,0,1,0-.37l.36-.35-.34-.36a.26.26,0,0,1,0-.37A.26.26,0,0,1,133.45,208.59Z"/><path class="cls-32" d="M156.27,194.2a1.8,1.8,0,1,0,2.52-.39A1.8,1.8,0,0,0,156.27,194.2Z"/><path class="cls-2" d="M157.26,194.59l.4.3.3-.41a.27.27,0,0,1,.37,0,.26.26,0,0,1,.06.37l-.3.4.4.29a.27.27,0,0,1,.06.38.27.27,0,0,1-.37,0l-.4-.29-.29.4a.27.27,0,0,1-.38.06.27.27,0,0,1-.05-.37l.29-.4-.4-.3a.26.26,0,0,1-.06-.37A.27.27,0,0,1,157.26,194.59Z"/><path class="cls-33" d="M446.69,245.05a4.47,4.47,0,0,1-.58-6.28l-2.33-1.94a4.46,4.46,0,1,1-6.86-5.69l-2.33-1.94a4.46,4.46,0,1,1-6.87-5.69l-2.33-1.94a4.46,4.46,0,1,1-6.86-5.69l-4.16-3.46a18.32,18.32,0,0,1-25.72,2.39L291.29,332.12a18.3,18.3,0,0,1,2.39,25.71l4.22,3.5a4.46,4.46,0,0,1,6.75,5.61l2.44,2a4.46,4.46,0,0,1,6.76,5.6l2.44,2a4.46,4.46,0,0,1,6.75,5.6l2.44,2a4.46,4.46,0,0,1,6.76,5.6l4.21,3.5a18.32,18.32,0,0,1,25.72-2.39l97.36-117.31a18.3,18.3,0,0,1-2.39-25.71L453,244.46A4.46,4.46,0,0,1,446.69,245.05Z"/><path class="cls-3" d="M336,335.42l-5.21,6.28-2.16-1.8,12.68-15.28,2.16,1.8-5.23,6.31,17.54,14.55-2.24,2.7Z"/><path class="cls-3" d="M345.4,319.66,365.1,336l-2.21,2.66-19.71-16.35Z"/><path class="cls-3" d="M380.29,316.4a17.7,17.7,0,0,1-3.59,6.23c-4.83,5.82-12,7.29-18.43,1.93-6.17-5.12-6.71-13-1.4-19.37a14.71,14.71,0,0,1,4.94-4.17l1.54,2.36a13,13,0,0,0-4.27,3.49c-4,4.83-3.73,10.5,1.44,14.79,4.83,4,10.34,3.67,14.51-1.35a14.59,14.59,0,0,0,2.79-5Z"/><path class="cls-3" d="M364,297.25l2.21-2.67,9.5,7.89.08-.09c-.31-1.19-.55-2.32-.76-3.37l-2.16-12.45,2.74-3.31,2.16,14.41,18,1.36-2.62,3.16L377.86,301l.54,3.75,7.51,6.24-2.21,2.66Z"/><path class="cls-3" d="M397.11,278.65l-6.66,8,7.1,5.9,7.43-8.94,2.13,1.77L397.48,297l-19.71-16.36L387,269.5l2.14,1.77-7,8.49,6.22,5.17,6.66-8Z"/><path class="cls-3" d="M396.1,263l-5.21,6.28-2.17-1.8,12.68-15.28,2.17,1.8-5.24,6.31,17.55,14.56-2.24,2.69Z"/><path class="cls-1" d="M302.68,331.77l87.47-105.4.63-.76.77.63,55,45.64.76.63-.63.77L359.2,378.67l-.64.76-.76-.63-55-45.64-.76-.63.63-.76ZM391,228.4l-86.2,103.87,53.46,44.37,86.2-103.87Z"/><polygon class="cls-34" points="124.83 230.44 189.67 219.45 254.51 208.46 266.59 386.99 219.43 394.99 172.27 402.98 124.83 230.44"/><polygon class="cls-35" points="264.58 357.35 266.59 386.99 219.43 394.99 172.27 402.98 164.39 374.33 264.58 357.35"/><path class="cls-35" d="M133.34,229l15.37-2.61c7.21,30,13.75,57.16,19.72,81.95,5.45,22.67,10.47,43.53,15.1,62.75l-11.78,2c-5.1-19.14-10.64-39.92-16.66-62.49Z"/><path class="cls-35" d="M165.37,223.57,180.75,221l15.48,82.66c4.28,22.87,8.22,43.92,11.86,63.31l-11.79,2-13.42-63C177.59,281,171.77,253.66,165.37,223.57Z"/><path class="cls-35" d="M197.42,218.14l15.38-2.61L224,298.91c3.11,23.07,6,44.3,8.61,63.85l-11.79,2L210.7,301.17C206.68,276.05,202.27,248.49,197.42,218.14Z"/><path class="cls-35" d="M229.46,212.71l15.4-2.61c2.56,30.75,4.88,58.65,7,84.08,1.94,23.27,3.72,44.68,5.36,64.42l-11.8,2-6.92-64.14C235.76,271.12,232.76,243.32,229.46,212.71Z"/><rect class="cls-36" x="122.95" y="216.62" width="133.53" height="6.15" rx="1.08" transform="translate(-34.05 34.8) rotate(-9.62)"/><path class="cls-31" d="M206.73,187.82a9,9,0,1,1-4.58,17,9.89,9.89,0,1,1-10.61-15.91,7.62,7.62,0,0,1,15.11-1.74C206.68,187.38,206.71,187.6,206.73,187.82Z"/><path class="cls-37" d="M194.43,192.05c2.93-.5,5.65,1.15,6.08,3.67s-1.6,5-4.53,5.46-5.65-1.14-6.08-3.66S191.5,192.55,194.43,192.05Z"/><path class="cls-37" d="M198.06,183.63c2.93-.49,5.65,1.15,6.08,3.67s-1.6,5-4.53,5.47-5.65-1.15-6.08-3.67S195.13,184.13,198.06,183.63Z"/><path class="cls-37" d="M206.26,192.11c2.93-.49,5.65,1.15,6.08,3.67s-1.6,5-4.53,5.47-5.64-1.15-6.07-3.67S203.34,192.61,206.26,192.11Z"/><path class="cls-31" d="M146.29,211.68a9,9,0,1,1-4.58,17,9.89,9.89,0,1,1-10.61-15.91A7.62,7.62,0,0,1,146.21,211C146.24,211.24,146.27,211.46,146.29,211.68Z"/><path class="cls-37" d="M134,215.91c2.93-.5,5.65,1.15,6.07,3.67s-1.59,5-4.52,5.46-5.65-1.14-6.08-3.67S131.06,216.41,134,215.91Z"/><path class="cls-37" d="M137.62,207.49c2.93-.49,5.65,1.15,6.07,3.67s-1.6,5-4.52,5.46-5.65-1.14-6.08-3.66S134.69,208,137.62,207.49Z"/><path class="cls-37" d="M145.82,216c2.93-.49,5.65,1.15,6.08,3.67s-1.6,5-4.53,5.47-5.65-1.15-6.07-3.67S142.89,216.47,145.82,216Z"/><path class="cls-31" d="M164.16,200.89a9,9,0,1,1-4.58,17A9.89,9.89,0,1,1,149,202a7.62,7.62,0,0,1,15.11-1.74C164.12,200.45,164.14,200.67,164.16,200.89Z"/><path class="cls-37" d="M151.86,205.12c2.93-.5,5.65,1.15,6.08,3.67s-1.6,5-4.53,5.46-5.65-1.14-6.07-3.67S148.93,205.62,151.86,205.12Z"/><path class="cls-37" d="M155.49,196.7c2.93-.49,5.65,1.15,6.08,3.67s-1.6,5-4.53,5.46-5.65-1.14-6.08-3.66S152.56,197.2,155.49,196.7Z"/><path class="cls-37" d="M163.7,205.18c2.92-.49,5.64,1.15,6.07,3.67s-1.6,5-4.53,5.47-5.64-1.15-6.07-3.67S160.77,205.68,163.7,205.18Z"/><path class="cls-31" d="M180.3,197.65a9,9,0,1,1-4.58,17,9.89,9.89,0,1,1-10.61-15.92A7.62,7.62,0,0,1,180.22,197C180.25,197.21,180.28,197.43,180.3,197.65Z"/><path class="cls-37" d="M168,201.88c2.93-.49,5.65,1.15,6.07,3.67s-1.59,5-4.52,5.47-5.65-1.15-6.08-3.67S165.07,202.38,168,201.88Z"/><path class="cls-37" d="M171.63,193.47c2.93-.5,5.65,1.14,6.07,3.66s-1.6,5-4.52,5.47-5.65-1.15-6.08-3.67S168.7,194,171.63,193.47Z"/><path class="cls-37" d="M179.83,202c2.93-.5,5.65,1.14,6.08,3.67s-1.6,5-4.53,5.46-5.65-1.15-6.07-3.67S176.91,202.44,179.83,202Z"/><path class="cls-31" d="M174.71,204.76a9,9,0,1,1-4.58,17,9.89,9.89,0,1,1-10.61-15.91,7.61,7.61,0,0,1,15.1-1.74Q174.68,204.43,174.71,204.76Z"/><path class="cls-37" d="M162.41,209c2.93-.5,5.65,1.14,6.07,3.67s-1.6,5-4.52,5.46-5.65-1.14-6.08-3.67S159.48,209.49,162.41,209Z"/><path class="cls-37" d="M166,200.57c2.92-.49,5.64,1.15,6.07,3.67s-1.6,5-4.53,5.46-5.64-1.14-6.07-3.66S163.11,201.07,166,200.57Z"/><path class="cls-37" d="M174.24,209.05c2.93-.49,5.65,1.15,6.08,3.67s-1.6,5-4.53,5.47-5.65-1.15-6.08-3.67S171.31,209.55,174.24,209.05Z"/><path class="cls-31" d="M198.83,201.25a9,9,0,1,1-4.58,17,9.89,9.89,0,1,1-10.61-15.92,7.61,7.61,0,0,1,15.1-1.74Q198.8,200.92,198.83,201.25Z"/><path class="cls-37" d="M186.53,205.48c2.93-.5,5.65,1.15,6.07,3.67s-1.6,5-4.52,5.46-5.65-1.14-6.08-3.66S183.6,206,186.53,205.48Z"/><path class="cls-37" d="M190.16,197.06c2.92-.49,5.64,1.15,6.07,3.67s-1.6,5-4.53,5.47-5.64-1.15-6.07-3.67S187.23,197.56,190.16,197.06Z"/><path class="cls-37" d="M198.36,205.54c2.93-.49,5.65,1.15,6.08,3.67s-1.6,5-4.53,5.47-5.65-1.15-6.08-3.67S195.43,206,198.36,205.54Z"/><path class="cls-31" d="M221.36,191.14a9,9,0,1,1-4.58,17,9.89,9.89,0,1,1-10.61-15.92,7.61,7.61,0,0,1,15.1-1.74Q221.33,190.81,221.36,191.14Z"/><path class="cls-37" d="M209.06,195.37c2.93-.49,5.65,1.15,6.07,3.67s-1.6,5-4.52,5.46-5.65-1.14-6.08-3.66S206.13,195.87,209.06,195.37Z"/><path class="cls-37" d="M212.69,187c2.92-.5,5.64,1.14,6.07,3.66s-1.6,5-4.52,5.47-5.65-1.15-6.08-3.67S209.76,187.45,212.69,187Z"/><path class="cls-37" d="M220.89,195.44c2.93-.5,5.65,1.14,6.08,3.66s-1.6,5-4.53,5.47-5.65-1.15-6.08-3.67S218,195.93,220.89,195.44Z"/><path class="cls-31" d="M226.53,196.66a9,9,0,1,1-4.58,17,9.89,9.89,0,1,1-10.61-15.91A7.62,7.62,0,0,1,226.45,196C226.49,196.22,226.51,196.44,226.53,196.66Z"/><path class="cls-37" d="M214.23,200.89c2.93-.5,5.65,1.15,6.08,3.67s-1.6,5-4.53,5.46-5.65-1.14-6.07-3.66S211.31,201.39,214.23,200.89Z"/><path class="cls-37" d="M217.86,192.47c2.93-.49,5.65,1.15,6.08,3.67s-1.6,5-4.53,5.47-5.65-1.15-6.08-3.67S214.93,193,217.86,192.47Z"/><path class="cls-37" d="M226.07,201c2.92-.49,5.64,1.15,6.07,3.67s-1.6,5-4.53,5.47-5.64-1.15-6.07-3.67S223.14,201.45,226.07,201Z"/><path class="cls-31" d="M241.52,190.34a9,9,0,0,1,1.16,17.92,8.94,8.94,0,0,1-5.73-.92,9.89,9.89,0,1,1-10.62-15.92,7.62,7.62,0,0,1,15.11-1.74A5,5,0,0,1,241.52,190.34Z"/><path class="cls-37" d="M229.23,194.58c2.92-.5,5.64,1.14,6.07,3.66s-1.6,5-4.53,5.47-5.64-1.15-6.07-3.67S226.3,195.07,229.23,194.58Z"/><path class="cls-37" d="M232.85,186.16c2.93-.5,5.65,1.14,6.08,3.67s-1.6,5-4.53,5.46-5.65-1.14-6.07-3.67S229.93,186.66,232.85,186.16Z"/><path class="cls-37" d="M241.06,194.64c2.93-.5,5.65,1.15,6.07,3.67s-1.6,5-4.52,5.46-5.65-1.14-6.08-3.67S238.13,195.14,241.06,194.64Z"/><path class="cls-31" d="M244.58,191.85a9,9,0,1,1-4.58,17,9.89,9.89,0,1,1-10.61-15.92,7.62,7.62,0,0,1,15.11-1.73C244.53,191.41,244.56,191.63,244.58,191.85Z"/><path class="cls-37" d="M232.28,196.09c2.93-.5,5.65,1.14,6.07,3.66s-1.59,5-4.52,5.47-5.65-1.15-6.08-3.67S229.35,196.58,232.28,196.09Z"/><path class="cls-37" d="M235.91,187.67c2.93-.5,5.65,1.14,6.07,3.67s-1.6,5-4.52,5.46-5.65-1.15-6.08-3.67S233,188.17,235.91,187.67Z"/><path class="cls-37" d="M244.11,196.15c2.93-.5,5.65,1.15,6.08,3.67s-1.6,5-4.53,5.46-5.65-1.14-6.07-3.67S241.19,196.65,244.11,196.15Z"/><path class="cls-31" d="M231.27,180.07a7.7,7.7,0,1,1-3.91,14.5A8.44,8.44,0,1,1,218.31,181a6.5,6.5,0,0,1,12.89-1.48C231.23,179.7,231.25,179.88,231.27,180.07Z"/><path class="cls-37" d="M220.77,183.68c2.5-.42,4.82,1,5.19,3.13s-1.37,4.24-3.87,4.66-4.81-1-5.18-3.13S218.28,184.11,220.77,183.68Z"/><path class="cls-37" d="M223.87,176.5c2.5-.42,4.82,1,5.18,3.13s-1.36,4.24-3.86,4.66-4.82-1-5.18-3.13S221.37,176.92,223.87,176.5Z"/><path class="cls-37" d="M230.87,183.74c2.5-.43,4.82,1,5.18,3.12s-1.36,4.24-3.86,4.67-4.82-1-5.18-3.13S228.37,184.16,230.87,183.74Z"/><path class="cls-31" d="M211.16,182.46a9,9,0,1,1-4.58,17A9.89,9.89,0,1,1,196,183.54a7.62,7.62,0,0,1,15.11-1.74C211.12,182,211.14,182.24,211.16,182.46Z"/><path class="cls-37" d="M198.86,186.69c2.93-.49,5.65,1.15,6.08,3.67s-1.6,5-4.53,5.46-5.65-1.14-6.08-3.66S195.93,187.19,198.86,186.69Z"/><path class="cls-37" d="M202.49,178.27c2.93-.49,5.65,1.15,6.08,3.67s-1.6,5-4.53,5.47-5.65-1.15-6.08-3.67S199.56,178.77,202.49,178.27Z"/><path class="cls-37" d="M210.69,186.76c2.93-.5,5.65,1.14,6.08,3.66s-1.6,5-4.53,5.47-5.64-1.15-6.07-3.67S207.77,187.25,210.69,186.76Z"/><path class="cls-31" d="M199,182.8a9,9,0,1,1-4.57,17,9.89,9.89,0,1,1-10.61-15.91,7.61,7.61,0,0,1,15.1-1.74A5,5,0,0,1,199,182.8Z"/><path class="cls-37" d="M186.67,187c2.92-.5,5.64,1.14,6.07,3.67s-1.6,5-4.53,5.46-5.64-1.14-6.07-3.67S183.74,187.53,186.67,187Z"/><path class="cls-37" d="M190.29,178.61c2.93-.49,5.65,1.15,6.08,3.67s-1.6,5-4.53,5.46-5.64-1.14-6.07-3.66S187.37,179.11,190.29,178.61Z"/><path class="cls-37" d="M198.5,187.09c2.93-.49,5.65,1.15,6.07,3.67s-1.59,5-4.52,5.46-5.65-1.14-6.08-3.66S195.57,187.59,198.5,187.09Z"/><path class="cls-31" d="M155.19,194.07a9,9,0,1,1-4.57,17A9.89,9.89,0,1,1,140,195.15a7.61,7.61,0,0,1,15.1-1.74A5,5,0,0,1,155.19,194.07Z"/><path class="cls-37" d="M142.9,198.3c2.92-.5,5.64,1.15,6.07,3.67s-1.6,5-4.53,5.46-5.64-1.14-6.07-3.67S140,198.8,142.9,198.3Z"/><path class="cls-37" d="M146.53,189.88c2.92-.49,5.64,1.15,6.07,3.67s-1.6,5-4.53,5.46-5.64-1.14-6.07-3.66S143.6,190.38,146.53,189.88Z"/><path class="cls-37" d="M154.73,198.36c2.93-.49,5.65,1.15,6.08,3.67s-1.6,5-4.53,5.46-5.65-1.14-6.08-3.66S151.8,198.86,154.73,198.36Z"/><path class="cls-31" d="M159.53,191.51a9,9,0,1,1-4.58,17,9.89,9.89,0,1,1-10.61-15.91,7.61,7.61,0,0,1,15.1-1.74Q159.5,191.18,159.53,191.51Z"/><path class="cls-37" d="M147.23,195.74c2.93-.5,5.65,1.15,6.07,3.67s-1.6,5-4.52,5.46-5.65-1.14-6.08-3.67S144.3,196.24,147.23,195.74Z"/><path class="cls-37" d="M150.86,187.32c2.92-.49,5.64,1.15,6.07,3.67s-1.6,5-4.53,5.46-5.64-1.14-6.07-3.66S147.93,187.82,150.86,187.32Z"/><path class="cls-37" d="M159.06,195.8c2.93-.49,5.65,1.15,6.08,3.67s-1.6,5-4.53,5.47-5.65-1.15-6.08-3.67S156.13,196.3,159.06,195.8Z"/><path class="cls-31" d="M174.73,180.34a9,9,0,1,1-4.58,17,9.89,9.89,0,1,1-10.61-15.92,7.62,7.62,0,0,1,15.11-1.73C174.69,179.91,174.71,180.12,174.73,180.34Z"/><path class="cls-37" d="M162.43,184.58c2.93-.5,5.65,1.14,6.08,3.66s-1.6,5-4.53,5.47-5.65-1.15-6.07-3.67S159.51,185.07,162.43,184.58Z"/><path class="cls-37" d="M166.06,176.16c2.93-.5,5.65,1.15,6.08,3.67s-1.6,5-4.53,5.46-5.65-1.14-6.08-3.67S163.13,176.66,166.06,176.16Z"/><path class="cls-37" d="M174.27,184.64c2.92-.5,5.64,1.15,6.07,3.67s-1.6,5-4.53,5.46-5.64-1.14-6.07-3.66S171.34,185.14,174.27,184.64Z"/><path class="cls-31" d="M185.11,174.88a9,9,0,1,1-4.58,17A9.89,9.89,0,1,1,169.92,176,7.62,7.62,0,0,1,185,174.22C185.06,174.44,185.09,174.66,185.11,174.88Z"/><path class="cls-37" d="M172.81,179.11c2.93-.49,5.65,1.15,6.08,3.67s-1.6,5-4.53,5.47-5.65-1.15-6.08-3.67S169.88,179.61,172.81,179.11Z"/><path class="cls-37" d="M176.44,170.7c2.93-.5,5.65,1.14,6.08,3.66s-1.6,5-4.53,5.47-5.65-1.15-6.08-3.67S173.51,171.19,176.44,170.7Z"/><path class="cls-37" d="M184.64,179.18c2.93-.5,5.65,1.14,6.08,3.67s-1.6,5-4.53,5.46-5.64-1.15-6.07-3.67S181.72,179.67,184.64,179.18Z"/><path class="cls-31" d="M209.87,171.83a6.59,6.59,0,1,1-3.34,12.4,7.21,7.21,0,1,1-7.74-11.61,5.55,5.55,0,0,1,11-1.27A3.93,3.93,0,0,1,209.87,171.83Z"/><path class="cls-37" d="M200.9,174.92a3.42,3.42,0,1,1-3.3,4A3.69,3.69,0,0,1,200.9,174.92Z"/><path class="cls-37" d="M203.55,168.78a3.42,3.42,0,1,1-3.31,4A3.69,3.69,0,0,1,203.55,168.78Z"/><path class="cls-37" d="M209.53,175a3.42,3.42,0,1,1-3.3,4A3.67,3.67,0,0,1,209.53,175Z"/><path class="cls-31" d="M197.86,171.45a7.24,7.24,0,1,1-3.67,13.64,7.94,7.94,0,1,1-8.52-12.77,6.11,6.11,0,0,1,12.12-1.39C197.82,171.1,197.84,171.28,197.86,171.45Z"/><path class="cls-37" d="M188,174.85c2.35-.4,4.53.92,4.87,2.94s-1.28,4-3.63,4.39-4.53-.92-4.87-2.94A4.05,4.05,0,0,1,188,174.85Z"/><path class="cls-37" d="M190.9,168.1a4.06,4.06,0,0,1,4.88,2.94c.34,2-1.29,4-3.64,4.38s-4.53-.91-4.87-2.94S188.55,168.5,190.9,168.1Z"/><path class="cls-37" d="M197.49,174.9c2.34-.4,4.53.92,4.87,2.94a4.36,4.36,0,0,1-8.51,1.45C193.51,177.26,195.14,175.3,197.49,174.9Z"/><path class="cls-38" d="M201.43,244.35c6-2,11.57-2.46,16,4.09s3.61,8.79,1.31,10.09-8.44-4.79-13-1.88S147.1,346.7,147.1,346.7l-5.79-21.34C154,305.6,196.37,246,201.43,244.35Z"/><path class="cls-38" d="M245.63,232.37c-6.16,1.33-11.23,3.72-11.74,11.61s1.33,9.41,4,9.37,4.86-8.4,10.23-8.17,96.13,48.08,96.13,48.08l-5.78-21.34C317.52,261.27,250.84,231.24,245.63,232.37Z"/><path class="cls-39" d="M246.78,296.77l8.32-2.25,83.34-22.6,9.7,35.79a9.79,9.79,0,0,1-6.87,12l-72.82,19.74a9.79,9.79,0,0,1-12-6.87l-6.88-25.39c-2.19.46-4.44,1-6.73,1.61-2.45.67-4.82,1.39-7.08,2.16l6.88,25.37a9.79,9.79,0,0,1-6.87,12L163,368a9.79,9.79,0,0,1-12-6.86L147.1,346.7l-5.79-21.34,83.81-22.72,7.85-2.13Z"/><rect class="cls-40" x="157.65" y="321.23" width="71.22" height="28.62" transform="translate(-81.06 62.26) rotate(-15.17)"/><rect class="cls-41" x="263.12" y="292.64" width="71.22" height="28.62" transform="translate(-69.9 88.86) rotate(-15.17)"/><polygon class="cls-42" points="143.98 79.28 152.64 94.97 170.25 98.36 158 111.45 160.22 129.24 143.98 121.64 127.74 129.24 129.96 111.45 117.71 98.36 135.32 94.97 143.98 79.28"/><polygon class="cls-43" points="458.23 57.36 463.88 67.59 475.36 69.8 467.37 78.34 468.81 89.94 458.23 84.97 447.64 89.94 449.09 78.34 441.1 69.8 452.58 67.59 458.23 57.36"/><polygon class="cls-44" points="320.89 233.54 324.38 239.87 331.48 241.23 326.54 246.5 327.44 253.67 320.89 250.61 314.35 253.67 315.25 246.5 310.31 241.23 317.4 239.87 320.89 233.54"/><polygon class="cls-45" points="507.96 266.64 514.22 277.98 526.94 280.43 518.09 289.89 519.69 302.75 507.96 297.25 496.23 302.75 497.83 289.89 488.98 280.43 501.7 277.98 507.96 266.64"/><polygon class="cls-46" points="69.31 270.49 75.57 281.84 88.3 284.28 79.44 293.74 81.04 306.6 69.31 301.1 57.58 306.6 59.18 293.74 50.33 284.28 63.05 281.84 69.31 270.49"/></g></g></svg>