<svg xmlns="http://www.w3.org/2000/svg" viewBox="0 0 512 510"><defs><style>.cls-1{fill:#f02d2d;}</style></defs><title>fixtures</title><g id="Layer_2" data-name="Layer 2"><g id="Capa_1" data-name="Capa 1"><path class="cls-1" d="M370.05,266a10,10,0,0,1,0-20h0a10,10,0,0,1,0,20Z"/><path class="cls-1" d="M502,296H402.07a10,10,0,0,1-10-10V226a10,10,0,0,1,10-10H502a10,10,0,0,1,10,10v60A10,10,0,0,1,502,296Zm-89.94-20H492V236H412.07Z"/><path class="cls-1" d="M340.41,101.63H308.83V82a10,10,0,0,0-10-10H198.9a10,10,0,0,0-10,10v20H161.57V40a10,10,0,0,0-10-10H119.92V10a10,10,0,0,0-10-10H10A10,10,0,0,0,0,10V70A10,10,0,0,0,10,80h99.94a10,10,0,0,0,10-10V50h21.67V174H119.92V154a10,10,0,0,0-10-10H10A10,10,0,0,0,0,154v60a10,10,0,0,0,10,10h99.94a10,10,0,0,0,10-10V194h31.66a10,10,0,0,0,10-10V122H188.9v20a10,10,0,0,0,10,10h99.93a10,10,0,0,0,10-10V121.63h21.59v268H308.82V368a10,10,0,0,0-10-10H198.9a10,10,0,0,0-10,10v20H161.57V326a10,10,0,0,0-10-10H119.92V296a10,10,0,0,0-10-10H10A10,10,0,0,0,0,296v60a10,10,0,0,0,10,10h99.94a10,10,0,0,0,10-10V336h21.67V460H119.92V440a10,10,0,0,0-10-10H10A10,10,0,0,0,0,440v60a10,10,0,0,0,10,10h99.94a10,10,0,0,0,10-10V480h31.66a10,10,0,0,0,10-10V408H188.9v20a10,10,0,0,0,10,10h99.93a10,10,0,0,0,10-10V409.63H340.4a10,10,0,0,0,10-10v-288A10,10,0,0,0,340.41,101.63ZM99.93,60H20V20H99.93Zm0,144H20V164H99.93Zm188.91-72H208.89V92h79.95ZM99.93,346H20V306H99.93Zm0,144H20V450H99.93Zm188.91-72H208.89V378h79.95Z"/></g></g></svg>