<svg xmlns="http://www.w3.org/2000/svg" viewBox="0 0 450.59 512"><defs><style>.cls-1{fill:#fff;fill-rule:evenodd;}</style></defs><title>entertainment</title><g id="Layer_2" data-name="Layer 2"><g id="Layer_1-2" data-name="Layer 1"><path class="cls-1" d="M440.59,206.68H99.42l327.7-94.93a10,10,0,0,0,6.82-12.39l-17.15-59.2a55.68,55.68,0,0,0-68.94-38L40.18,91.32a55.77,55.77,0,0,0-38,68.94L19,218.09V456.35A55.71,55.71,0,0,0,74.61,512H194.77a10,10,0,0,0,0-20H74.61A35.69,35.69,0,0,1,39,456.35V320.26H430.59V456.35A35.69,35.69,0,0,1,394.94,492H274.77a10,10,0,0,0,0,20H394.94a55.71,55.71,0,0,0,55.65-55.65V216.68A10,10,0,0,0,440.59,206.68ZM264.26,300.26l42.49-73.58H362l-42.49,73.58Zm-78.36,0,42.49-73.58h55.26l-42.49,73.58Zm-78.36,0L150,226.68h55.26L162.8,300.26ZM144.72,170.8,73.57,102.47,126.88,87a10.56,10.56,0,0,0,1.32,1.54l71.14,68.34L146,172.35A9.53,9.53,0,0,0,144.72,170.8ZM278.72,45l71.15,68.34-53.31,15.44a9.9,9.9,0,0,0-1.31-1.54L224.1,58.86l53.31-15.44A9.46,9.46,0,0,0,278.72,45ZM203.46,66.77l71.15,68.33L221.3,150.55A10.13,10.13,0,0,0,220,149L148.84,80.67l53.3-15.44A10.56,10.56,0,0,0,203.46,66.77Zm150-45.37a35.33,35.33,0,0,1,9.83-1.4,35.88,35.88,0,0,1,34.33,25.73L412,95.32l-40.12,11.62a10.63,10.63,0,0,0-1.32-1.55L299.37,37.06ZM24.48,127.6a35.41,35.41,0,0,1,21.26-17.07l5.88-1.7a10,10,0,0,0,1.31,1.54l71.15,68.34-88.3,25.58L21.42,154.7A35.4,35.4,0,0,1,24.48,127.6ZM39,226.68h88L84.45,300.26H39Zm303.66,73.58,42.48-73.58h45.49v73.58Z"/><path class="cls-1" d="M303.92,405.11a10,10,0,0,0-5-8.66l-87.85-50.72a10,10,0,0,0-15,8.66V455.84a10,10,0,0,0,15,8.65l87.85-50.72A10,10,0,0,0,303.92,405.11Zm-87.85,33.41V371.71l57.85,33.4Z"/><path class="cls-1" d="M234.77,492a10,10,0,1,0,10,10A10,10,0,0,0,234.77,492Z"/></g></g></svg>