<svg xmlns="http://www.w3.org/2000/svg" viewBox="0 0 512 375.47"><defs><style>.cls-1{fill:#f02d2d;}</style></defs><title>live-match</title><g id="Layer_2" data-name="Layer 2"><g id="Capa_1" data-name="Capa 1"><path class="cls-1" d="M486.4,0H25.6A25.6,25.6,0,0,0,0,25.6V349.87a25.6,25.6,0,0,0,25.6,25.6H486.4a25.6,25.6,0,0,0,25.6-25.6V25.6A25.6,25.6,0,0,0,486.4,0Zm8.53,349.87a8.53,8.53,0,0,1-8.53,8.53H25.6a8.53,8.53,0,0,1-8.53-8.53V25.6a8.53,8.53,0,0,1,8.53-8.53H486.4a8.53,8.53,0,0,1,8.53,8.53V349.87Z"/><path class="cls-1" d="M469.33,34.13H42.67a8.54,8.54,0,0,0-8.54,8.54V332.8a8.53,8.53,0,0,0,8.54,8.53H469.33a8.53,8.53,0,0,0,8.54-8.53V42.67A8.54,8.54,0,0,0,469.33,34.13ZM51.2,119.47H85.33A8.53,8.53,0,0,1,93.87,128V247.47A8.54,8.54,0,0,1,85.33,256H51.2Zm196.27,204.8H51.2v-51.2H85.33a25.6,25.6,0,0,0,25.6-25.6v-9.31a51.14,51.14,0,0,0,0-100.86V128a25.6,25.6,0,0,0-25.6-25.6H51.2V51.2H247.47v68.85a68.21,68.21,0,0,0,0,135.36ZM110.93,220.65V154.81a34,34,0,0,1,0,65.84ZM256,213.33a8.53,8.53,0,0,0-8.53,8.54v16.3a51.14,51.14,0,0,1,0-100.87v16.3a8.53,8.53,0,1,0,17.06,0V137.3a51.14,51.14,0,0,1,0,100.87v-16.3A8.53,8.53,0,0,0,256,213.33ZM460.8,256H426.67a8.53,8.53,0,0,1-8.54-8.53V128a8.53,8.53,0,0,1,8.54-8.53H460.8Zm0-153.6H426.67a25.6,25.6,0,0,0-25.6,25.6v9.3a51.14,51.14,0,0,0,0,100.87v9.3a25.6,25.6,0,0,0,25.6,25.6H460.8v51.2H264.53V255.41a68.21,68.21,0,0,0,0-135.36V51.2H460.8Zm-59.73,52.41v65.84a34,34,0,0,1,0-65.84Z"/><path class="cls-1" d="M262.06,181.67c-.43-.34-.85-.68-1.37-1a4.6,4.6,0,0,0-1.45-.77,5.16,5.16,0,0,0-1.63-.51,8.55,8.55,0,0,0-7.68,2.3,9.93,9.93,0,0,0-1.79,2.82,8,8,0,0,0,0,6.48h0a9.79,9.79,0,0,0,1.79,2.82,8.81,8.81,0,0,0,6.06,2.48,12.38,12.38,0,0,0,1.61-.17,5.18,5.18,0,0,0,1.63-.52,5,5,0,0,0,1.46-.76c.5-.35.93-.69,1.36-1a9.88,9.88,0,0,0,1.79-2.81,8.06,8.06,0,0,0,0-6.49A9.93,9.93,0,0,0,262.06,181.67Z"/></g></g></svg>