<svg xmlns="http://www.w3.org/2000/svg" viewBox="0 0 60 60"><defs><style>.cls-1{fill:#f02d2d;}</style></defs><title>play</title><g id="Layer_2" data-name="Layer 2"><g id="Capa_1" data-name="Capa 1"><path class="cls-1" d="M45.56,29.17l-22-15a1,1,0,0,0-1-.05A1,1,0,0,0,22,15V45a1,1,0,0,0,.53.88A1,1,0,0,0,23,46a1,1,0,0,0,.56-.17l22-15a1,1,0,0,0,0-1.66ZM24,43.11V16.89L43.22,30Z"/><path class="cls-1" d="M30,0A30,30,0,1,0,60,30,30,30,0,0,0,30,0Zm0,58A28,28,0,1,1,58,30,28,28,0,0,1,30,58Z"/></g></g></svg>